<?xml version="1.0" encoding="utf-8"?>
<!-- Generator: Adobe Illustrator 27.1.1, SVG Export Plug-In . SVG Version: 6.00 Build 0)  -->
<svg version="1.1" xmlns="http://www.w3.org/2000/svg" xmlns:xlink="http://www.w3.org/1999/xlink" x="0px" y="0px"
	 viewBox="0 0 841.9 595.3" style="enable-background:new 0 0 841.9 595.3;" xml:space="preserve">
<style type="text/css">
	.st0{fill:#FFFFFF;}
	.st1{fill:#67D8EE;}
	.st2{fill:#2AC6E9;}
	.st3{fill:#17B0CF;}
	.st4{fill:#24245F;fill-opacity:0.7085;}
	.st5{fill:#03340E;fill-opacity:0.4814;}
	.st6{fill:#6C6464;}
	.st7{fill:#454545;fill-opacity:0.5864;}
	
		.st8{fill:none;stroke:#C31E00;stroke-width:4.1398;stroke-linecap:round;stroke-linejoin:bevel;stroke-miterlimit:11.3386;stroke-opacity:0.9763;}
	.st9{fill:#4D4D4D;}
</style>
<g id="bkgrnd_0">
	
		<sodipodi:namedview  bordercolor="#eeeeee" borderopacity="1" id="namedview7" pagecolor="#505050" showgrid="false" showguides="true">
		</sodipodi:namedview>
	<defs>
		
			<inkscape:path-effect  apply_no_weight="true" apply_with_weight="true" effect="bspline" helper_size="0" id="path-effect1680" is_visible="true" lpeversion="1" only_selected="false" steps="2" weight="33.333333">
			</inkscape:path-effect>
		
			<inkscape:path-effect  apply_no_weight="true" apply_with_weight="true" effect="bspline" helper_size="0" id="path-effect34925" is_visible="true" lpeversion="1" only_selected="false" steps="2" weight="33.333333">
			</inkscape:path-effect>
		
			<inkscape:path-effect  apply_no_weight="true" apply_with_weight="true" effect="bspline" helper_size="0" id="path-effect32407" is_visible="true" lpeversion="1" only_selected="false" steps="2" weight="0">
			</inkscape:path-effect>
		
			<inkscape:path-effect  apply_no_radius="true" apply_with_radius="true" chamfer_steps="1" effect="fillet_chamfer" flexible="false" hide_knots="false" id="path-effect32149" is_visible="true" lpeversion="1" method="auto" mode="F" nodesatellites_param="F,0,0,1,0,0,0,1 @ F,0,0,1,0,0,0,1 @ F,0,0,1,0,0,0,1 @ F,0,0,1,0,0,0,1" only_selected="false" radius="0" unit="px" use_knot_distance="true">
			</inkscape:path-effect>
		
			<inkscape:path-effect  apply_no_radius="true" apply_with_radius="true" chamfer_steps="1" effect="fillet_chamfer" flexible="false" hide_knots="false" id="path-effect21926" is_visible="true" lpeversion="1" method="auto" mode="F" nodesatellites_param="F,0,0,1,0,1.3229167,0,1 @ F,0,0,1,0,1.3229167,0,1 @ F,0,0,1,0,1.3229167,0,1 @ F,0,0,1,0,1.3229167,0,1" only_selected="false" radius="5" unit="px" use_knot_distance="true">
			</inkscape:path-effect>
		
			<inkscape:path-effect  apply_no_weight="true" apply_with_weight="true" effect="bspline" helper_size="0" id="path-effect14025" is_visible="true" lpeversion="1" only_selected="false" steps="2" weight="33.333333">
			</inkscape:path-effect>
		
			<inkscape:path-effect  apply_no_weight="true" apply_with_weight="true" effect="bspline" helper_size="0" id="path-effect13831" is_visible="true" lpeversion="1" only_selected="false" steps="2" weight="33.333333">
			</inkscape:path-effect>
		
			<inkscape:path-effect  apply_no_radius="true" apply_with_radius="true" chamfer_steps="1" effect="fillet_chamfer" flexible="false" hide_knots="false" id="path-effect10442" is_visible="true" lpeversion="1" method="auto" mode="F" nodesatellites_param="F,0,0,1,0,2.6458333,0,1 @ F,0,0,1,0,2.6458333,0,1 @ F,0,0,1,0,2.6458333,0,1 @ F,0,0,1,0,2.6458333,0,1" only_selected="false" radius="10" unit="px" use_knot_distance="true">
			</inkscape:path-effect>
		
			<inkscape:path-effect  effect="powerclip" flatten="false" hide_clip="false" id="path-effect12248" inverse="true" is_visible="true" lpeversion="1" message="Use fill-rule evenodd on &lt;b&gt;fill and stroke&lt;/b&gt; dialog if no flatten result after convert clip to paths.">
			</inkscape:path-effect>
		
			<inkscape:path-effect  effect="powerclip" flatten="false" hide_clip="false" id="path-effect12238" inverse="true" is_visible="true" lpeversion="1" message="Use fill-rule evenodd on &lt;b&gt;fill and stroke&lt;/b&gt; dialog if no flatten result after convert clip to paths.">
			</inkscape:path-effect>
		
			<inkscape:path-effect  effect="powerclip" flatten="false" hide_clip="false" id="path-effect12228" inverse="true" is_visible="true" lpeversion="1" message="Use fill-rule evenodd on &lt;b&gt;fill and stroke&lt;/b&gt; dialog if no flatten result after convert clip to paths.">
			</inkscape:path-effect>
		
			<inkscape:path-effect  effect="powerclip" flatten="false" hide_clip="false" id="path-effect12218" inverse="true" is_visible="true" lpeversion="1" message="Use fill-rule evenodd on &lt;b&gt;fill and stroke&lt;/b&gt; dialog if no flatten result after convert clip to paths.">
			</inkscape:path-effect>
		
			<inkscape:path-effect  effect="powerclip" flatten="false" hide_clip="false" id="path-effect1667" inverse="true" is_visible="true" lpeversion="1" message="Use fill-rule evenodd on &lt;b&gt;fill and stroke&lt;/b&gt; dialog if no flatten result after convert clip to paths.">
			</inkscape:path-effect>
		
			<inkscape:path-effect  effect="powerclip" flatten="false" hide_clip="false" id="path-effect1547" inverse="true" is_visible="true" lpeversion="1" message="Use fill-rule evenodd on &lt;b&gt;fill and stroke&lt;/b&gt; dialog if no flatten result after convert clip to paths.">
			</inkscape:path-effect>
		
			<inkscape:path-effect  effect="powerclip" flatten="false" hide_clip="false" id="path-effect1537" inverse="true" is_visible="true" lpeversion="1" message="Use fill-rule evenodd on &lt;b&gt;fill and stroke&lt;/b&gt; dialog if no flatten result after convert clip to paths.">
			</inkscape:path-effect>
		
			<inkscape:path-effect  apply_no_radius="true" apply_with_radius="true" chamfer_steps="1" effect="fillet_chamfer" flexible="false" hide_knots="false" id="path-effect10442-2" is_visible="true" lpeversion="1" method="auto" mode="F" nodesatellites_param="F,0,0,1,0,2.6458333,0,1 @ F,0,0,1,0,2.6458333,0,1 @ F,0,0,1,0,2.6458333,0,1 @ F,0,0,1,0,2.6458333,0,1" only_selected="false" radius="10" unit="px" use_knot_distance="true">
			</inkscape:path-effect>
		
			<inkscape:path-effect  apply_no_radius="true" apply_with_radius="true" chamfer_steps="1" effect="fillet_chamfer" flexible="false" hide_knots="false" id="path-effect10442-1" is_visible="true" lpeversion="1" method="auto" mode="F" nodesatellites_param="F,0,0,1,0,2.6458333,0,1 @ F,0,0,1,0,2.6458333,0,1 @ F,0,0,1,0,2.6458333,0,1 @ F,0,0,1,0,2.6458333,0,1" only_selected="false" radius="10" unit="px" use_knot_distance="true">
			</inkscape:path-effect>
		
			<inkscape:path-effect  apply_no_radius="true" apply_with_radius="true" chamfer_steps="1" effect="fillet_chamfer" flexible="false" hide_knots="false" id="path-effect10442-1-9" is_visible="true" lpeversion="1" method="auto" mode="F" nodesatellites_param="F,0,0,1,0,2.6458333,0,1 @ F,0,0,1,0,2.6458333,0,1 @ F,0,0,1,0,2.6458333,0,1 @ F,0,0,1,0,2.6458333,0,1" only_selected="false" radius="10" unit="px" use_knot_distance="true">
			</inkscape:path-effect>
		
			<inkscape:path-effect  apply_no_weight="true" apply_with_weight="true" effect="bspline" helper_size="0" id="path-effect14025-7" is_visible="true" lpeversion="1" only_selected="false" steps="2" weight="33.333333">
			</inkscape:path-effect>
		
			<inkscape:path-effect  apply_no_weight="true" apply_with_weight="true" effect="bspline" helper_size="0" id="path-effect14025-7-9" is_visible="true" lpeversion="1" only_selected="false" steps="2" weight="33.333333">
			</inkscape:path-effect>
		
			<inkscape:path-effect  apply_no_weight="true" apply_with_weight="true" effect="bspline" helper_size="0" id="path-effect14025-7-4" is_visible="true" lpeversion="1" only_selected="false" steps="2" weight="33.333333">
			</inkscape:path-effect>
		
			<inkscape:path-effect  apply_no_weight="true" apply_with_weight="true" effect="bspline" helper_size="0" id="path-effect14025-7-4-5" is_visible="true" lpeversion="1" only_selected="false" steps="2" weight="33.333333">
			</inkscape:path-effect>
		
			<inkscape:path-effect  apply_no_weight="true" apply_with_weight="true" effect="bspline" helper_size="0" id="path-effect14025-7-0" is_visible="true" lpeversion="1" only_selected="false" steps="2" weight="33.333333">
			</inkscape:path-effect>
		
			<inkscape:path-effect  apply_no_weight="true" apply_with_weight="true" effect="bspline" helper_size="0" id="path-effect14025-7-0-4" is_visible="true" lpeversion="1" only_selected="false" steps="2" weight="33.333333">
			</inkscape:path-effect>
		
			<inkscape:path-effect  apply_no_weight="true" apply_with_weight="true" effect="bspline" helper_size="0" id="path-effect14025-7-4-5-7" is_visible="true" lpeversion="1" only_selected="false" steps="2" weight="33.333333">
			</inkscape:path-effect>
		
			<inkscape:path-effect  apply_no_weight="true" apply_with_weight="true" effect="bspline" helper_size="0" id="path-effect14025-7-9-7" is_visible="true" lpeversion="1" only_selected="false" steps="2" weight="33.333333">
			</inkscape:path-effect>
		
			<inkscape:path-effect  apply_no_weight="true" apply_with_weight="true" effect="bspline" helper_size="0" id="path-effect14025-7-9-7-4" is_visible="true" lpeversion="1" only_selected="false" steps="2" weight="33.333333">
			</inkscape:path-effect>
		
			<inkscape:path-effect  apply_no_radius="true" apply_with_radius="true" chamfer_steps="1" effect="fillet_chamfer" flexible="false" hide_knots="false" id="path-effect21926-9" is_visible="true" lpeversion="1" method="auto" mode="F" nodesatellites_param="F,0,0,1,0,1.3229167,0,1 @ F,0,0,1,0,1.3229167,0,1 @ F,0,0,1,0,1.3229167,0,1 @ F,0,0,1,0,1.3229167,0,1" only_selected="false" radius="5" unit="px" use_knot_distance="true">
			</inkscape:path-effect>
		
			<inkscape:path-effect  apply_no_radius="true" apply_with_radius="true" chamfer_steps="1" effect="fillet_chamfer" flexible="false" hide_knots="false" id="path-effect21926-9-3" is_visible="true" lpeversion="1" method="auto" mode="F" nodesatellites_param="F,0,0,1,0,0.52916667,0,1 @ F,0,0,1,0,0.52916667,0,1 @ F,0,0,1,0,0.52916667,0,1 @ F,0,0,1,0,0.52916667,0,1" only_selected="false" radius="2" unit="px" use_knot_distance="true">
			</inkscape:path-effect>
		
			<inkscape:path-effect  apply_no_radius="true" apply_with_radius="true" chamfer_steps="1" effect="fillet_chamfer" flexible="false" hide_knots="false" id="path-effect21926-9-3-7" is_visible="true" lpeversion="1" method="auto" mode="F" nodesatellites_param="F,0,0,1,0,0.52916667,0,1 @ F,0,0,1,0,0.52916667,0,1 @ F,0,0,1,0,0.52916667,0,1 @ F,0,0,1,0,0.52916667,0,1" only_selected="false" radius="2" unit="px" use_knot_distance="true">
			</inkscape:path-effect>
		
			<inkscape:path-effect  apply_no_radius="true" apply_with_radius="true" chamfer_steps="1" effect="fillet_chamfer" flexible="false" hide_knots="false" id="path-effect21926-9-3-7-2" is_visible="true" lpeversion="1" method="auto" mode="F" nodesatellites_param="F,0,0,1,0,0.52916667,0,1 @ F,0,0,1,0,0.52916667,0,1 @ F,0,0,1,0,0.52916667,0,1 @ F,0,0,1,0,0.52916667,0,1" only_selected="false" radius="2" unit="px" use_knot_distance="true">
			</inkscape:path-effect>
		
			<inkscape:path-effect  apply_no_radius="true" apply_with_radius="true" chamfer_steps="1" effect="fillet_chamfer" flexible="false" hide_knots="false" id="path-effect21926-9-3-7-2-6" is_visible="true" lpeversion="1" method="auto" mode="F" nodesatellites_param="F,0,0,1,0,0.52916667,0,1 @ F,0,0,1,0,0.52916667,0,1 @ F,0,0,1,0,0.52916667,0,1 @ F,0,0,1,0,0.52916667,0,1" only_selected="false" radius="2" unit="px" use_knot_distance="true">
			</inkscape:path-effect>
		
			<inkscape:path-effect  apply_no_radius="true" apply_with_radius="true" chamfer_steps="1" effect="fillet_chamfer" flexible="false" hide_knots="false" id="path-effect21926-9-3-7-4" is_visible="true" lpeversion="1" method="auto" mode="F" nodesatellites_param="F,0,0,1,0,0,0,1 @ F,0,0,1,0,0,0,1 @ F,0,0,1,0,0,0,1 @ F,0,0,1,0,0,0,1" only_selected="false" radius="0" unit="px" use_knot_distance="true">
			</inkscape:path-effect>
		
			<inkscape:path-effect  apply_no_radius="true" apply_with_radius="true" chamfer_steps="1" effect="fillet_chamfer" flexible="false" hide_knots="false" id="path-effect21926-9-3-7-4-4" is_visible="true" lpeversion="1" method="auto" mode="F" nodesatellites_param="F,0,0,1,0,0,0,1 @ F,0,0,1,0,0,0,1 @ F,0,0,1,0,0,0,1 @ F,0,0,1,0,0,0,1" only_selected="false" radius="0" unit="px" use_knot_distance="true">
			</inkscape:path-effect>
		
			<inkscape:path-effect  apply_no_radius="true" apply_with_radius="true" chamfer_steps="1" effect="fillet_chamfer" flexible="false" hide_knots="false" id="path-effect21926-9-3-7-4-4-5" is_visible="true" lpeversion="1" method="auto" mode="F" nodesatellites_param="F,0,0,1,0,0,0,1 @ F,0,0,1,0,0,0,1 @ F,0,0,1,0,0,0,1 @ F,0,0,1,0,0,0,1" only_selected="false" radius="0" unit="px" use_knot_distance="true">
			</inkscape:path-effect>
		
			<inkscape:path-effect  apply_no_radius="true" apply_with_radius="true" chamfer_steps="1" effect="fillet_chamfer" flexible="false" hide_knots="false" id="path-effect21926-9-3-8" is_visible="true" lpeversion="1" method="auto" mode="F" nodesatellites_param="F,0,0,1,0,0.26458333,0,1 @ F,0,0,1,0,0.26458333,0,1 @ F,0,0,1,0,0.26458333,0,1 @ F,0,0,1,0,0.26458333,0,1" only_selected="false" radius="1" unit="px" use_knot_distance="true">
			</inkscape:path-effect>
		
			<inkscape:path-effect  apply_no_radius="true" apply_with_radius="true" chamfer_steps="1" effect="fillet_chamfer" flexible="false" hide_knots="false" id="path-effect21926-9-3-7-4-4-3" is_visible="true" lpeversion="1" method="auto" mode="F" nodesatellites_param="F,0,0,1,0,0,0,1 @ F,0,0,1,0,0,0,1 @ F,0,0,1,0,0,0,1 @ F,0,0,1,0,0,0,1" only_selected="false" radius="0" unit="px" use_knot_distance="true">
			</inkscape:path-effect>
		
			<inkscape:path-effect  apply_no_radius="true" apply_with_radius="true" chamfer_steps="1" effect="fillet_chamfer" flexible="false" hide_knots="false" id="path-effect21926-9-3-7-4-4-3-6" is_visible="true" lpeversion="1" method="auto" mode="F" nodesatellites_param="F,0,0,1,0,0,0,1 @ F,0,0,1,0,0,0,1 @ F,0,0,1,0,0,0,1 @ F,0,0,1,0,0,0,1" only_selected="false" radius="0" unit="px" use_knot_distance="true">
			</inkscape:path-effect>
		
			<inkscape:path-effect  apply_no_radius="true" apply_with_radius="true" chamfer_steps="1" effect="fillet_chamfer" flexible="false" hide_knots="false" id="path-effect21926-9-3-7-4-4-3-6-1" is_visible="true" lpeversion="1" method="auto" mode="F" nodesatellites_param="F,0,0,1,0,0,0,1 @ F,0,0,1,0,0,0,1 @ F,0,0,1,0,0,0,1 @ F,0,0,1,0,0,0,1" only_selected="false" radius="0" unit="px" use_knot_distance="true">
			</inkscape:path-effect>
		
			<inkscape:path-effect  apply_no_radius="true" apply_with_radius="true" chamfer_steps="1" effect="fillet_chamfer" flexible="false" hide_knots="false" id="path-effect21926-9-3-7-4-4-3-6-1-4" is_visible="true" lpeversion="1" method="auto" mode="F" nodesatellites_param="F,0,0,1,0,0,0,1 @ F,0,0,1,0,0,0,1 @ F,0,0,1,0,0,0,1 @ F,0,0,1,0,0,0,1" only_selected="false" radius="0" unit="px" use_knot_distance="true">
			</inkscape:path-effect>
		
			<inkscape:path-effect  apply_no_radius="true" apply_with_radius="true" chamfer_steps="1" effect="fillet_chamfer" flexible="false" hide_knots="false" id="path-effect21926-9-3-7-4-4-3-6-1-4-7" is_visible="true" lpeversion="1" method="auto" mode="F" nodesatellites_param="F,0,0,1,0,0,0,1 @ F,0,0,1,0,0,0,1 @ F,0,0,1,0,0,0,1 @ F,0,0,1,0,0,0,1" only_selected="false" radius="0" unit="px" use_knot_distance="true">
			</inkscape:path-effect>
		
			<inkscape:path-effect  apply_no_radius="true" apply_with_radius="true" chamfer_steps="1" effect="fillet_chamfer" flexible="false" hide_knots="false" id="path-effect21926-9-3-7-4-4-3-6-1-4-71" is_visible="true" lpeversion="1" method="auto" mode="F" nodesatellites_param="F,0,0,1,0,0,0,1 @ F,0,0,1,0,0,0,1 @ F,0,0,1,0,0,0,1 @ F,0,0,1,0,0,0,1" only_selected="false" radius="0" unit="px" use_knot_distance="true">
			</inkscape:path-effect>
		
			<inkscape:path-effect  apply_no_radius="true" apply_with_radius="true" chamfer_steps="1" effect="fillet_chamfer" flexible="false" hide_knots="false" id="path-effect21926-9-3-7-4-4-3-6-1-4-7-8" is_visible="true" lpeversion="1" method="auto" mode="F" nodesatellites_param="F,0,0,1,0,0,0,1 @ F,0,0,1,0,0,0,1 @ F,0,0,1,0,0,0,1 @ F,0,0,1,0,0,0,1" only_selected="false" radius="0" unit="px" use_knot_distance="true">
			</inkscape:path-effect>
		
			<inkscape:path-effect  apply_no_radius="true" apply_with_radius="true" chamfer_steps="1" effect="fillet_chamfer" flexible="false" hide_knots="false" id="path-effect21926-9-3-0" is_visible="true" lpeversion="1" method="auto" mode="F" nodesatellites_param="F,0,0,1,0,0.26458333,0,1 @ F,0,0,1,0,0.26458333,0,1 @ F,0,0,1,0,0.26458333,0,1 @ F,0,0,1,0,0.26458333,0,1" only_selected="false" radius="1" unit="px" use_knot_distance="true">
			</inkscape:path-effect>
		
			<inkscape:path-effect  apply_no_radius="true" apply_with_radius="true" chamfer_steps="1" effect="fillet_chamfer" flexible="false" hide_knots="false" id="path-effect21926-9-3-0-5" is_visible="true" lpeversion="1" method="auto" mode="F" nodesatellites_param="F,0,0,1,0,0.26458333,0,1 @ F,0,0,1,0,0.26458333,0,1 @ F,0,0,1,0,0.26458333,0,1 @ F,0,0,1,0,0.26458333,0,1" only_selected="false" radius="1" unit="px" use_knot_distance="true">
			</inkscape:path-effect>
		
			<inkscape:path-effect  apply_no_radius="true" apply_with_radius="true" chamfer_steps="1" effect="fillet_chamfer" flexible="false" hide_knots="false" id="path-effect21926-9-3-0-7" is_visible="true" lpeversion="1" method="auto" mode="F" nodesatellites_param="F,0,0,1,0,0.26458333,0,1 @ F,0,0,1,0,0.26458333,0,1 @ F,0,0,1,0,0.26458333,0,1 @ F,0,0,1,0,0.26458333,0,1" only_selected="false" radius="1" unit="px" use_knot_distance="true">
			</inkscape:path-effect>
		
			<inkscape:path-effect  apply_no_radius="true" apply_with_radius="true" chamfer_steps="1" effect="fillet_chamfer" flexible="false" hide_knots="false" id="path-effect21926-9-3-0-0" is_visible="true" lpeversion="1" method="auto" mode="F" nodesatellites_param="F,0,0,1,0,0.26458333,0,1 @ F,0,0,1,0,0.26458333,0,1 @ F,0,0,1,0,0.26458333,0,1 @ F,0,0,1,0,0.26458333,0,1" only_selected="false" radius="1" unit="px" use_knot_distance="true">
			</inkscape:path-effect>
		
			<inkscape:path-effect  apply_no_radius="true" apply_with_radius="true" chamfer_steps="1" effect="fillet_chamfer" flexible="false" hide_knots="false" id="path-effect21926-9-3-0-73" is_visible="true" lpeversion="1" method="auto" mode="F" nodesatellites_param="F,0,0,1,0,0.26458333,0,1 @ F,0,0,1,0,0.26458333,0,1 @ F,0,0,1,0,0.26458333,0,1 @ F,0,0,1,0,0.26458333,0,1" only_selected="false" radius="1" unit="px" use_knot_distance="true">
			</inkscape:path-effect>
		
			<inkscape:path-effect  apply_no_radius="true" apply_with_radius="true" chamfer_steps="1" effect="fillet_chamfer" flexible="false" hide_knots="false" id="path-effect21926-9-3-0-0-3" is_visible="true" lpeversion="1" method="auto" mode="F" nodesatellites_param="F,0,0,1,0,0.26458333,0,1 @ F,0,0,1,0,0.26458333,0,1 @ F,0,0,1,0,0.26458333,0,1 @ F,0,0,1,0,0.26458333,0,1" only_selected="false" radius="1" unit="px" use_knot_distance="true">
			</inkscape:path-effect>
		
			<inkscape:path-effect  apply_no_weight="true" apply_with_weight="true" effect="bspline" helper_size="0" id="path-effect14025-7-9-1" is_visible="true" lpeversion="1" only_selected="false" steps="2" weight="33.333333">
			</inkscape:path-effect>
		
			<inkscape:path-effect  apply_no_weight="true" apply_with_weight="true" effect="bspline" helper_size="0" id="path-effect14025-7-9-0" is_visible="true" lpeversion="1" only_selected="false" steps="2" weight="33.333333">
			</inkscape:path-effect>
		
			<inkscape:path-effect  apply_no_weight="true" apply_with_weight="true" effect="bspline" helper_size="0" id="path-effect14025-7-9-10" is_visible="true" lpeversion="1" only_selected="false" steps="2" weight="33.333333">
			</inkscape:path-effect>
		
			<inkscape:path-effect  apply_no_weight="true" apply_with_weight="true" effect="bspline" helper_size="0" id="path-effect14025-7-9-10-9" is_visible="true" lpeversion="1" only_selected="false" steps="2" weight="33.333333">
			</inkscape:path-effect>
		
			<inkscape:path-effect  apply_no_weight="true" apply_with_weight="true" effect="bspline" helper_size="0" id="path-effect14025-7-9-10-9-7" is_visible="true" lpeversion="1" only_selected="false" steps="2" weight="33.333333">
			</inkscape:path-effect>
		
			<inkscape:path-effect  apply_no_weight="true" apply_with_weight="true" effect="bspline" helper_size="0" id="path-effect14025-7-9-10-9-4" is_visible="true" lpeversion="1" only_selected="false" steps="2" weight="33.333333">
			</inkscape:path-effect>
		
			<inkscape:path-effect  apply_no_weight="true" apply_with_weight="true" effect="bspline" helper_size="0" id="path-effect14025-7-9-10-9-45" is_visible="true" lpeversion="1" only_selected="false" steps="2" weight="33.333333">
			</inkscape:path-effect>
		
			<inkscape:path-effect  apply_no_weight="true" apply_with_weight="true" effect="bspline" helper_size="0" id="path-effect14025-7-9-10-9-45-4" is_visible="true" lpeversion="1" only_selected="false" steps="2" weight="33.333333">
			</inkscape:path-effect>
		
			<inkscape:path-effect  apply_no_weight="true" apply_with_weight="true" effect="bspline" helper_size="0" id="path-effect14025-7-9-10-9-45-4-9" is_visible="true" lpeversion="1" only_selected="false" steps="2" weight="33.333333">
			</inkscape:path-effect>
		
			<inkscape:path-effect  apply_no_weight="true" apply_with_weight="true" effect="bspline" helper_size="0" id="path-effect14025-7-9-10-9-45-4-9-6" is_visible="true" lpeversion="1" only_selected="false" steps="2" weight="33.333333">
			</inkscape:path-effect>
	</defs>
	<g id="layer2">
		<rect id="background" class="st0" width="841.9" height="595.3">
		</rect>
		<g id="g4770">
			<path id="water-3" class="st1" d="M0.3,285.9l10,8c9.9,7.9,29.9,23.9,50,27.4c20.1,3.6,40.3-5.3,60.4-6.5s40.1,5.6,60.1,0.6
				c19.9-5,39.9-21.7,59.9-28.1c19.9-6.2,39.9-2.2,60.1,3.6c20.1,5.8,40.3,13.1,60.4,18.9s40.1,9.8,60.1,6.5
				c19.9-3.3,39.9-14,60.1-13.7c20.1,0.3,40.3,11.9,60.4,9.1s40.1-19.9,60.1-24.4c19.9-4.5,39.9,3.8,59.9,13.9
				c19.9,10.2,39.9,22.5,60.1,20.6c20.1-1.8,40.3-17.8,60.4-25.6c20.1-7.8,40.1-7.4,50-7.2l10,0.2v223.9h-10c-9.9,0-29.9,0-50,0
				s-40.3,0-60.4,0s-40.1,0-60.1,0s-39.9,0-59.9,0c-19.9,0-39.9,0-60.1,0s-40.3,0-60.4,0s-40.1,0-60.1,0s-39.9,0-60.1,0
				s-40.3,0-60.4,0s-40.1,0-60.1,0c-19.9,0-39.9,0-59.9,0s-39.9,0-60.1,0s-40.3,0-60.4,0s-40.1,0-50,0h-10L0.3,285.9L0.3,285.9z"/>
			<path id="water-2" class="st2" d="M0.3,292.2l10,7.8c9.9,7.7,29.9,23.3,50,26.6c20.1,3.5,40.3-5.2,60.4-6.3s40.1,5.4,60.1,0.5
				c19.9-4.9,39.9-21.1,59.9-27.3c19.9-6.1,39.9-2.2,60.1,3.5c20.1,5.6,40.3,12.8,60.4,18.4s40.1,9.5,60.1,6.3
				c19.9-3.2,39.9-13.6,60.1-13.3c20.1,0.3,40.3,11.6,60.4,8.9s40.1-19.4,60.1-23.7s39.9,3.7,59.9,13.5c19.9,10,39.9,21.9,60.1,20
				c20.1-1.7,40.3-17.3,60.4-24.9c20.1-7.6,40.1-7.1,50-7l10,0.2v217.7h-10c-9.9,0-29.9,0-50,0s-40.3,0-60.4,0s-40.1,0-60.1,0
				s-39.9,0-59.9,0c-19.9,0-39.9,0-60.1,0s-40.3,0-60.4,0s-40.1,0-60.1,0s-39.9,0-60.1,0s-40.3,0-60.4,0s-40.1,0-60.1,0
				c-19.9,0-39.9,0-59.9,0s-39.9,0-60.1,0s-40.3,0-60.4,0s-40.1,0-50,0h-10L0.3,292.2L0.3,292.2z"/>
			<path id="water-1" class="st3" d="M0.3,305.8l10,7.3c9.9,7.2,29.9,21.9,50,25c20.1,3.3,40.3-4.9,60.4-5.9s40.1,5.1,60.1,0.5
				c19.9-4.6,39.9-19.8,59.9-25.6c19.9-5.7,39.9-2,60.1,3.3c20.1,5.3,40.3,12,60.4,17.3s40.1,8.9,60.1,5.9
				c19.9-3,39.9-12.8,60.1-12.5c20.1,0.3,40.3,10.9,60.4,8.3c20.1-2.5,40.1-18.2,60.1-22.3c19.9-4.1,39.9,3.5,59.9,12.7
				c19.9,9.4,39.9,20.5,60.1,18.8c20.1-1.6,40.3-16.3,60.4-23.4c20.1-7.1,40.1-6.7,50-6.6l10,0.2v204.3h-10h-50h-15.1h-7.6H752
				h-30.2h-60.1h-59.9h-60.1h-60.4h-60.1h-60.1h-60.4h-60.1h-59.9h-60.1H60.4h-50h-10V305.8H0.3z"/>
		</g>
	</g>
</g>
<g id="bkgrnd">
	<g id="_x39_K9V6l_00000047043342595389519330000007515780507427365535_">
		
			<image style="overflow:visible;" width="883" height="411" id="_x39_K9V6l_00000129891443883758490220000012128533154474200960_" xlink:href="995822F39A3543D8.jpg"  transform="matrix(1 0 0 1 -45.7 109.2)">
		</image>
	</g>
</g>
<g id="svg5" xmlns:svg="http://www.w3.org/2000/svg" xmlns:sodipodi="http://sodipodi.sourceforge.net/DTD/sodipodi-0.dtd" xmlns:inkscape="http://www.inkscape.org/namespaces/inkscape" inkscape:version="1.2.2 (b0a84865, 2022-12-01)" sodipodi:docname="cetaceans.svg">
	<path id="cetacean" inkscape:label="cetacean" class="st4" d="M326.1,353.2c-0.1,0-0.1,0-0.2,0c-0.2,0.1-0.7,0.2-1,0.2
		s-0.7-0.2-0.9-0.2c-0.1-0.1-0.2,0.1-0.3,0.1c-0.1,0-0.3-0.1-0.4-0.1c-0.2,0-0.1,0-0.3,0.1c-0.2,0.2-1,0.2-1.2,0.2s-0.3-0.1-0.5-0.1
		s-0.5,0.2-0.6,0.3c-0.2,0-0.5,0-0.8,0s-0.4,0.1-0.5,0.2c-0.2,0.1-0.2,0.3-0.1,0.4c0,0.1,0.1,0.1,0.2,0.2c0,0.1-0.2,0.4-0.1,0.6
		c0,0.2,0.2,0.2,0.2,0.4c0,0.1-0.1,0.4,0.1,0.7c0.2,0.3,0.3,0.2,0.4,0.5c0.1,0.2,0,0.3,0.1,0.8c0.1,0.4,0.8,0.9,1.1,0.9
		c0.3,0.1,1,0.3,1.3,0.2c0.2,0,0.5-0.2,0.7-0.2s2.6,0.9,3.2,1.2c0.6,0.3,1.9,0.9,2.6,1.2c0.6,0.4,1.9,1.2,2.8,1.8
		c0.9,0.6,2.9,2.1,3.9,2.8c1.1,0.7,4.8,2.2,5.1,2.3c0.4,0.1,0.7,0.4,1.3,0.6c0.6,0.2,2.7,0.6,3.5,0.9c0.7,0.2,3.4,1,4.8,1.5
		c0.2,0.3,0.5,0.6,0.7,0.9c0.1,0.2,0.2,0.3,0.4,0.5c0.1,0.2,0.2,0.2,0.3,0.4c0.6,0.7,1.1,1.3,1.2,1.4c0,0.1,0.1,0.1,0.1,0.2l0,0v0.1
		c0.1,0.2,0.1,0.4,0.1,0.4l0,0l0,0v0.1l0,0c0,0-0.1,0.1-0.1,0.2s-0.1,0.2-0.1,0.2c0,0.1,0.1,0.4,0.3,0.4c0.1,0,0.4,0.1,0.6,0.2l0,0
		c0.1,0,0.2,0.1,0.2,0.1s0,0,0.1,0c0.1,0.1,0.2,0.2,0.4,0.4l0,0c0.1,0.1,0.3,0.1,0.5,0.2l0,0c0.2,0.1,0.4,0.1,0.6,0.2
		s0.3,0.3,0.3,0.5l0,0c0,0.2,0,0.3,0,0.4c0,0,0.1,0.1,0.2,0.2l0,0l0.1,0.1c0.1,0.1,0.3,0.2,0.4,0.3l0.1,0.1l0,0
		c0.1,0,0.1,0.1,0.1,0.1l0,0l0,0c0,0,0.1,0,0.1,0.1c0,0,0,0.1,0.1,0.1l0,0c0.1,0.2-0.2,0.6-0.1,0.8l0,0c0,0.1,0.2,0.2,0.3,0.3l0,0
		c0.1,0.1,0.3,0.1,0.5,0.2l0,0c0.1,0,0.1,0.1,0.2,0.1l0,0c0.1,0,0.1,0.1,0.1,0.1l0.1,0.1l0,0c0,0,0,0,0,0.1l0,0c0,0,0,0,0,0.1
		c0,0,0,0,0,0.1v0.1l0,0c-0.1,0.3-0.4,0.5-0.1,0.7c0.1,0.1,0.5,0.1,0.9,0.2c0.1,0,0.1,0,0.2,0c0.3,0,0.5,0.1,0.6,0.1
		s0.1,0.1,0.2,0.1l0,0c0.2,0.2,0.3,0.6,0.5,0.8l0,0c0.1,0.1,0.1,0.1,0.2,0.2c0.1,0,0.1,0.1,0.2,0.1l0,0c0.2,0.1,0.3,0.2,0.5,0.4
		c0.4,0.4,0.1,0.8,0.3,0.9l0,0c0,0,0.1,0.1,0.2,0.2c0.2,0.1,0.4,0.2,0.6,0.4c0.1,0,0.1,0.1,0.2,0.1l0,0c0,0,0,0.1,0.1,0.1l0,0
		c0.1,0.3,0.3,1,0.4,1.1s0.5,0.2,0.8,0.3c0,0,0,0,0.1,0l0,0c0,0,0.1,0,0.1,0.1l0,0l0,0l0,0l0,0c0,0,0,0,0,0.1c0,0.2-0.1,0.4,0,0.5
		c0.1,0.2,0.8,0.4,1.1,0.5h0.1l0.1,0.1c0.2,0.2,0.3,0.4,0.4,0.4c0.1,0.1,0.4,0.1,0.5,0.1s0.3,0,0.4,0c0.1,0.1,0.3,0.3,0.5,0.3
		s0.4-0.1,0.6,0s0.5,0.1,0.7,0.1c0.3,0,0.4-0.3,0.5-0.5c0-0.2,0.1-0.1,0-0.2c0-0.1,0-0.4-0.1-0.5s-0.5-0.9-0.5-1.1
		c0-0.1-0.2-0.4-0.3-0.5c-0.1-0.1-0.4-0.3-0.4-0.4s0-0.3-0.1-0.4s-0.3-0.6-0.5-0.9s-0.8-1.6-1.2-2.3c-0.2-0.4-0.9-1.7-1.5-2.9
		c-0.5-1.2-0.9-2.4-0.9-2.5s0-0.5-0.1-0.6c0.1,0,0.2,0,0.3,0c0.1,0,0.1,0,0.2,0h0.1l0,0l0,0h0.1l0,0c0,0,0.1,0,0.1,0.1v0.1
		c0.1,0.2,0.1,0.4,0.2,0.4c0.1,0.1,0.9,0.2,1.2,0.2h0.1l0,0h0.1l0,0c0,0,0,0,0.1,0c0,0,0.1,0,0.1,0.1c0.2,0.1,0.3,0.2,0.4,0.2
		c0.2,0,0.3,0.1,0.4,0.1s0.3,0.1,0.5,0.1s0.4,0.2,0.6,0.2s0.5-0.3,0.7-0.3s0.3-0.1,0.6-0.2c0.2-0.1,0.3-0.3,0.3-0.5s0.1-0.1,0-0.2
		s-0.1-0.3-0.3-0.5c-0.1-0.1-0.9-0.8-1-0.9s-0.3-0.4-0.5-0.5c-0.1-0.1-0.5-0.2-0.5-0.3c0-0.1-0.1-0.3-0.3-0.4
		c-0.1-0.1-0.5-0.5-0.8-0.8c-0.1-0.1-0.3-0.3-0.5-0.4c1.6,0.1,3.2,0.2,3.9,0.3c1,0.1,4.1,0.5,5.9,0.4s6-0.1,8.6-0.6
		c2.5-0.5,9.4-2.6,14.2-4.2c5.7-1.7,12.7-5.8,13.9-6c0.3,0,0.8-0.1,1.3-0.2c2.5,0.5,8.3,1.8,9.7,1.9c1.7,0.1,3.5,0.1,3.8,0.1
		c0.3-0.1,0.5-0.2,0.4-0.2c-0.1-0.1-1.9,0-3.1-0.2c-1.3-0.2-2.5-0.6-3-0.8c-0.4-0.1-1.4-0.6-2.3-0.9c0.2-0.1,0.6-0.1,0.9-0.1
		c0-0.2,0-0.3,0.4-0.3c0.3,0,0.3-0.1,0.3-0.3c0-0.3,0.3-0.1,0.6-0.2c0.2,0,0.2-0.3,0.2-0.5c0.3,0,0.4,0,0.4-0.2
		c0.1-0.2,0.1-0.2,0.4-0.2s0.3,0.1,0.5-0.1c0.1-0.1,0.4-0.1,0.5-0.1s0-0.2,0.1-0.2c0-0.1,0.1-0.2,0.2-0.2s0.2-0.1,0.3-0.1
		c0.1-0.1,0-0.2,0-0.3c0-0.1,0.1-0.1,0.2-0.2s0-0.2,0.1-0.3c0.1-0.3,0.4-0.1,0.6-0.2s-0.2-0.3,0-0.3s0.3,0,0.4,0s-0.2-0.2,0-0.2
		s0.3,0,0.5,0c0.1,0-0.1-0.1,0.1-0.1s0.8,0.1,0.8,0.1s-1.7-0.9-3.4-1c-1.7-0.1-2.5,0.1-3.3,0.3c-0.9,0.3-1.6,0.6-2.6,1
		c-0.9,0.4-3.6,1.7-4,2c-0.8-0.1-2.1-0.3-2.3-0.3c-0.2,0-0.8,0.1-1.1,0.1c-0.3,0-1.2,0.1-1.6,0.1s-0.6,0.2-0.9,0.2s-0.8,0-1.1,0
		c-0.3,0-0.7,0.3-1,0.3s-0.7-0.1-1-0.1s-0.8,0.3-1.2,0.3c-0.4,0.1-1-0.1-1.4-0.1s-1,0.2-1.5,0.2c-0.4,0-0.7-0.2-1.2-0.2
		s-1.1,0.1-1.6,0.1s-1-0.3-1.3-0.3s-1.2,0-1.6,0s-0.8-0.2-1.2-0.2c-0.4,0-1.2,0-1.7,0c-0.3,0-0.9-0.2-1.6-0.3
		c-0.2-0.1-0.5-0.2-0.7-0.2c-0.7-0.2-1.3-0.3-1.4-0.7c-0.1-0.4,0.4-0.5,0.4-0.6s-0.6-0.4-1-0.4s-3.3,0.1-4.8,0.1
		c-1.3,0-4.2,0.1-5.1,0.1c-2.9-0.4-8.2-1-8.2-1s-5.3-0.5-7-0.5c-1.7-0.1-12.4-0.7-14.2-0.8c-1.8-0.1-6.2-0.6-7.2-0.9
		c-0.9-0.3-1.1-0.7-1.4-0.8c-0.3-0.1-0.3-0.1-0.7-0.2c-0.4-0.1-0.5-0.3-1.2-0.4c-0.8-0.1-1.7,0.1-2,0.2c-0.4,0-1.4,0.4-1.8,0.5
		c-0.4,0-0.4,0-0.7-0.1c-0.3,0-0.4,0-0.5,0.1c-0.1,0-2-0.3-2.2-0.3s-0.2-0.1-0.5-0.2s-0.5,0-0.7,0s-0.2-0.2-0.3-0.2
		c-0.1,0-0.3-0.1-0.5-0.1c-0.2,0.1-0.6,0-0.9,0c-0.4,0-0.8-0.2-1-0.3C326.4,353.3,326.2,353.2,326.1,353.2L326.1,353.2z
		 M462.5,398.7c-0.5,0-1,0-1.5,0.1c-2,0.4-2.8,0.8-3.7,1.3c-0.9,0.6-1.7,1.2-2.7,1.9c-0.9,0.7-3.5,3.1-3.9,3.5
		c-0.9,0-2.5,0.3-2.8,0.3c-0.3,0.1-0.8,0.4-1.2,0.5c-0.3,0.1-1.3,0.4-1.8,0.6s-0.6,0.4-0.9,0.5s-0.9,0.2-1.2,0.3
		c-0.3,0.1-0.7,0.5-1,0.6s-0.8,0.1-1.2,0.2c-0.4,0.1-0.9,0.6-1.3,0.7c-0.4,0.2-1.2,0.1-1.6,0.3c-0.4,0.1-1.1,0.6-1.6,0.7
		s-0.9-0.1-1.4,0s-1.2,0.4-1.8,0.6c-0.6,0.1-1.2-0.1-1.6,0s-1.3,0.4-1.8,0.5c-0.4,0.1-1,0-1.4,0.1s-1.4,0.4-1.9,0.4
		c-0.3,0-1.1,0.1-2,0.1c-0.3,0-0.6-0.1-0.9-0.1c-0.9-0.1-1.6,0-1.8-0.5c-0.3-0.5,0.3-0.7,0.2-0.8c-0.1-0.1-0.9-0.3-1.3-0.2
		c-0.5,0.1-3.7,1-5.4,1.4c-1.3,0.3-4.4,1.2-5.8,1.5c-3.5,0.3-9.7,1.1-9.7,1.1s-6.2,0.9-8.2,1.3s-14.3,2.6-16.4,3s-7.3,1-8.5,0.8
		s-1.5-0.6-1.9-0.6s-0.4,0-0.9-0.1s-0.6-0.3-1.5-0.2c-0.9,0.1-1.9,0.6-2.3,0.8c-0.4,0.1-1.4,0.9-1.9,1.1c-0.5,0.1-0.5,0.1-0.8,0.1
		s-0.4,0.1-0.6,0.2c-0.1,0.1-2.4,0.2-2.6,0.2s-0.2-0.1-0.6-0.1s-0.6,0.2-0.8,0.2c-0.2,0-0.2-0.2-0.4-0.2c-0.2,0-0.4-0.1-0.6,0.1
		c-0.2,0.1-0.6,0.2-1.1,0.3c-0.4,0.1-1,0-1.2-0.1s-0.4-0.2-0.7,0c-0.2,0.2-0.7,0.5-1,0.6s-0.9,0-1.1,0s-0.2,0.2-0.3,0.2
		c-0.2,0-0.3-0.1-0.5,0s-0.1,0-0.2,0.2s-1,0.6-1.3,0.6c-0.2,0-0.4,0-0.6,0.1s-0.4,0.4-0.6,0.5s-0.6,0.1-0.9,0.3
		c-0.4,0.1-0.4,0.3-0.5,0.4c-0.2,0.2-0.1,0.4,0,0.5s0.2,0,0.3,0.2c0.1,0.2,0,0.5,0,0.7c0.1,0.2,0.3,0.2,0.4,0.4c0,0.2,0,0.5,0.3,0.8
		s0.4,0.2,0.6,0.5s0.1,0.4,0.4,0.9s1.2,0.8,1.6,0.8s1.3,0,1.5-0.1s0.5-0.4,0.8-0.4s3.2,0.5,4,0.6c0.8,0.2,2.5,0.6,3.4,0.8
		c0.8,0.3,2.5,0.9,3.7,1.4s3.9,1.8,5.4,2.4s6.2,1.4,6.6,1.5c0.5,0.1,0.9,0.3,1.7,0.4c0.8,0.1,3.3,0,4.3,0.1c0.8,0.1,4.2,0.3,6,0.5
		c0.4,0.3,0.8,0.6,1.2,0.9c0.1,0.1,0.3,0.2,0.4,0.3c0.5,0.4,1,0.8,1.4,1.1l0.1,0.1c0.4,0.3,0.8,0.6,0.9,0.6l0.1,0.1l0.1,0.1l0,0
		c0.2,0.2,0.3,0.5,0.4,0.6l0,0c0,0,0,0.1,0,0.2l0,0c0,0.1,0,0.2-0.1,0.2c0,0.1-0.1,0.2-0.1,0.3c0,0.1,0.2,0.4,0.5,0.5
		c0.2,0,0.5,0.1,0.8,0.1l0,0c0.1,0,0.2,0,0.3,0l0,0l0,0c0.1,0,0.2,0.1,0.3,0.1l0,0c0,0,0.1,0.1,0.2,0.1l0,0c0,0,0.1,0,0.1,0.1l0,0
		c0,0,0,0,0.1,0c0,0,0,0,0.1,0l0,0l0,0c0.1,0,0.2,0,0.2,0l0,0l0,0c0.1,0,0.2,0,0.3,0l0,0l0,0c0.2,0,0.3,0,0.5,0.1l0,0l0,0
		c0.1,0,0.1,0,0.2,0.1c0.1,0,0.1,0,0.2,0.1c0.2,0.1,0.2,0.3,0.3,0.4l0,0c0,0,0,0,0,0.1s0.1,0.3,0.1,0.4l0,0c0,0,0,0.1,0.1,0.1l0,0
		l0.1,0.1l0,0c0.1,0.1,0.4,0.2,0.6,0.2l0,0c0.2,0.1,0.3,0.1,0.5,0.2l0,0c0,0,0,0,0.1,0s0.2,0.1,0.3,0.1c0.1,0.1,0.1,0.1,0.2,0.2l0,0
		l0,0c0,0.1,0,0.2,0,0.3l0,0c0,0.2,0,0.5,0.1,0.6c0,0,0,0.1,0.1,0.1c0.1,0.1,0.1,0.1,0.2,0.1l0,0c0.1,0,0.1,0,0.2,0.1
		c0.2,0,0.4,0.1,0.6,0.1c0.1,0,0.1,0,0.2,0.1l0,0c0.1,0,0.1,0.1,0.2,0.1l0,0l0.1,0.1l0,0c0,0,0,0,0,0.1l0,0c0,0,0,0,0,0.1l0,0
		c0,0,0,0,0,0.1v0.1v0.1v0.1c-0.1,0.4-0.2,0.7,0.1,0.9c0.1,0.1,0.6,0,1.1,0c0.2,0,0.3,0,0.5,0c0,0,0,0,0.1,0s0.2,0,0.3,0
		c0.1,0,0.1,0,0.2,0c0,0,0,0,0.1,0l0,0c0.1,0,0.1,0.1,0.2,0.1l0,0l0.1,0.1l0,0c0.1,0.1,0.3,0.3,0.4,0.4l0,0c0.1,0.1,0.2,0.2,0.3,0.2
		l0,0l0,0c0.2,0.1,0.3,0.2,0.5,0.2c0.2,0.1,0.5,0.2,0.7,0.3c0.1,0,0.1,0.1,0.2,0.1l0,0c0.3,0.3,0.3,0.7,0.4,0.9l0,0
		c0,0,0,0.1,0.1,0.1c0,0,0.1,0,0.1,0.1l0,0c0.3,0.1,0.7,0.2,1,0.3l0,0c0.1,0,0.2,0.1,0.3,0.1l0.1,0.1l0,0c0.3,0.3,0.6,1.1,0.8,1.2
		c0.2,0.1,0.6,0.1,0.9,0.1c0.1,0,0.1,0,0.1,0l0,0l0,0c0,0,0,0,0.1,0l0,0l0,0l0,0l0,0l0,0v0.1c0,0.2,0,0.5,0.1,0.6
		c0.1,0.2,1,0.3,1.4,0.3h0.1l0,0c0,0,0,0,0.1,0c0,0,0,0,0.1,0l0,0c0.1,0,0.1,0.1,0.2,0.1c0.2,0.1,0.3,0.3,0.4,0.3c0.2,0,0.5,0,0.6,0
		c0.2,0,0.3-0.1,0.5-0.1s0.5,0.2,0.6,0.2c0.2,0,0.4-0.2,0.6-0.2s0.6,0,0.9-0.1s0.4-0.4,0.4-0.7c0-0.3,0.1-0.1,0-0.3
		c-0.1-0.2-0.1-0.4-0.3-0.6c-0.2-0.2-0.9-1-1-1.2s-0.3-0.5-0.5-0.6c-0.1-0.1-0.5-0.2-0.6-0.3c0-0.1-0.1-0.4-0.3-0.5
		c-0.2-0.1-0.5-0.7-0.8-1s-1.4-1.7-2.1-2.5c-0.4-0.4-1.6-1.8-2.6-3.2c-1-1.4-1.8-2.7-1.8-2.8c-0.1-0.2-0.2-0.6-0.3-0.7
		c0.1,0,0.3,0,0.4-0.1h0.1c0.1,0,0.1,0,0.2,0c0,0,0,0,0.1,0c0,0,0,0,0.1,0l0,0h0.1l0,0l0,0l0,0l0,0c0,0,0,0,0.1,0.1l0,0
		c0,0,0,0,0,0.1c0.1,0.2,0.2,0.4,0.3,0.5c0.2,0.1,1.1,0,1.5-0.1h0.1c0,0,0,0,0.1,0h0.1h0.1h0.1h0.1c0.2,0.1,0.4,0.2,0.5,0.2
		c0.2,0,0.4,0,0.5,0c0.2,0,0.4,0,0.6,0s0.5,0.1,0.7,0.1c0.2-0.1,0.5-0.5,0.8-0.5c0.2,0,0.3-0.2,0.6-0.4c0.2-0.2,0.2-0.5,0.1-0.8
		c-0.1-0.2,0-0.1-0.1-0.2c-0.2-0.1-0.3-0.4-0.5-0.5s-1.3-0.7-1.4-0.9c-0.2-0.1-0.5-0.4-0.7-0.4c-0.2-0.1-0.6-0.1-0.7-0.2
		s-0.2-0.3-0.4-0.4c-0.2-0.1-0.8-0.5-1.2-0.7c-0.1-0.1-0.4-0.2-0.7-0.4c1.8-0.3,3.8-0.6,4.6-0.8c1.2-0.2,4.8-0.6,6.8-1.1
		c2-0.6,6.8-1.8,9.6-3.1c2.7-1.3,9.8-5.8,14.8-9.1c6-3.6,12.5-10.7,13.9-11.3c0.3-0.1,0.8-0.3,1.4-0.6c3-0.1,10.1,0,11.7-0.3
		c1.9-0.3,4-0.8,4.3-1s0.5-0.4,0.4-0.4s-2.1,0.5-3.6,0.6c-1.5,0.2-3-0.1-3.7-0.1c-0.5-0.1-1.8-0.3-2.9-0.5c0.1-0.2,0.6-0.2,0.9-0.4
		c-0.1-0.3-0.1-0.3,0.3-0.4s0.3-0.2,0.2-0.5c0-0.3,0.3-0.2,0.6-0.4c0.2-0.1,0.2-0.5,0.1-0.6c0.3-0.1,0.4-0.1,0.4-0.4
		c0-0.2,0-0.3,0.4-0.3c0.3,0,0.4,0,0.6-0.3c0.1-0.2,0.4-0.3,0.6-0.3c0.1,0,0-0.2,0-0.3c0-0.2,0-0.2,0.2-0.3c0.1-0.1,0.2-0.2,0.3-0.2
		c0-0.1-0.1-0.3-0.1-0.4c0-0.2,0.1-0.1,0.2-0.3c0.1-0.1,0-0.2,0-0.3c0-0.3,0.4-0.3,0.6-0.5s-0.3-0.3-0.1-0.4
		c0.2-0.1,0.3-0.1,0.4-0.1s-0.2-0.2-0.1-0.2c0.2,0,0.4-0.1,0.6-0.1s-0.1-0.1,0.1-0.2s1-0.1,1-0.1
		C465.1,399.1,463.9,398.7,462.5,398.7L462.5,398.7z"/>
	<path id="turtle" inkscape:label="turtle" class="st5" d="M780.5,336.7c-0.4,0-1,0-1.7,0.2c-0.4,0.1-0.5,0.2-0.5,0.3
		c0,0.1,0,0.1,0.4,0.4c0.3,0.2,0.4,0.3,0.6,0.4c0.1,0.1,0.3,0.1,0.7,0.2c0.5,0.1,0.5,0.1,0.7,0.2c0.3,0.1,0.5,0.2,0.7,0.3
		c0.3,0.2,0.2,0.3,0.5,0.6l0,0c0,0,0,0.1,0.1,0.1l0,0c0.3,0.3,0.4,0.2,0.6,0.5l0.1,0.1c0,0,0,0.1,0.1,0.1c0.1,0.1,0,0.2,0.1,0.2l0,0
		l0.1,0.1c0.2,0.2,0.3,0.2,0.5,0.5l0.1,0.1l0,0c0,0.1,0.1,0.1,0.2,0.2c0.1,0.2,0.1,0.3,0.2,0.3l0,0l0.1,0.1l0.1,0.1l0,0
		c0,0,0,0.1,0.2,0.2c0.1,0.1,0.1,0.1,0.2,0.2l0,0c0.1,0.1,0.1,0.1,0.2,0.2c0.3,0.4,0.3,0.7,0.4,0.9h-0.1c-0.7,0.1-0.8,0.1-1,0.1
		c-0.4,0.1-0.4,0.1-0.8,0.2c-0.5,0.1-0.5,0.1-0.9,0.1c-0.3,0.1-0.5,0.1-0.9,0.3c-0.4,0.1-0.5,0.2-0.6,0.3c-0.1,0-0.2,0.1-0.3,0.2
		c-0.2,0-0.4,0.1-1,0.4c-0.4,0.2-0.4,0.1-1,0.3c-0.3,0.1-0.6,0.2-1.1,0.5l0,0l0,0c-0.2-0.1-0.5,0.2-1,0.3c-0.1,0,0,0-0.7,0.1
		c-0.4,0-0.4,0-0.6,0.1c-0.2,0-0.9,0.3-0.9,0.4c-0.1,0-0.1,0.1-0.3,0.2c-0.1,0-0.3,0.2-0.6,0.3c-0.3,0.1-0.3,0.1-0.5,0.2
		c-0.3,0.1-0.3,0.2-0.7,0.3c-0.3,0.1-0.3,0.2-0.5,0.3c-0.1,0-0.3,0.2-0.3,0.4c-0.2,0-0.4,0.2-0.8,0.5c-0.2,0.1-0.3,0.2-0.6,0.3
		c-0.4,0.2-0.5,0.3-0.6,0.4s-0.6,0.7-0.7,0.9h-0.1c-0.2,0.1-0.3,0.2-0.6,0.4c-0.3,0.2-0.4,0.3-0.5,0.4c-0.2,0.2-0.1,0.3-0.3,0.6
		c-0.1,0.2-0.3,0.3-0.3,0.3c-0.2,0.1-0.2,0.1-0.5,0.3c-0.2,0.1-0.3,0.2-0.4,0.3c0,0.1,0,0.3,0,0.4c-0.1,0.1-0.2,0.2-0.3,0.4
		c-0.2,0.2-0.3,0.3-0.6,0.7c-0.2,0.3-0.3,0.4-0.3,0.5s0.1,0.3,0.2,0.4c-0.3,0.3-0.4,0.7-0.6,1.3c-0.1,0.2-0.2,0.5-0.2,0.7
		c-0.2,0.1-0.4,0.2-0.6,0.4c-0.3,0.2-0.5,0.2-0.9,0.5c-0.2,0.1-0.3,0.2-0.5,0.3l0,0c-0.1,0-0.1,0.1-0.3,0.2s-0.3,0.1-0.4,0.2l0,0
		c-0.1,0.1-0.3,0.2-0.6,0.3c-0.4,0.2-0.6,0.4-1,0.6c-0.2,0.2-0.3,0.3-0.4,0.4c-0.3,0.4-0.2,0.6-0.5,0.8c-0.2,0.2-0.3,0.1-0.8,0.3
		c-0.2,0.1-0.6,0.2-0.9,0.5c-0.4,0.2-0.7,0.5-0.7,0.8s0.4,0.5,0.7,0.5s0.5-0.1,0.8-0.2c1.2-0.6,0.8-0.3,1.3-0.6c1.1-0.6,1-0.7,1.6-1
		c0.3-0.1,0.7-0.3,1.5-0.5c0.6-0.2,1.1-0.4,1.6-0.5s0.8-0.3,1.3-0.4c0.8-0.2,1.2-0.3,1.7-0.5c0.4-0.1,0.6-0.1,0.8-0.2l0,0l0.1,0.1
		c-0.4,0.1-0.7,0.2-1,0.4c-0.1,0.1-0.2,0.2-0.4,0.3c-0.4,0.2-0.6,0.2-0.8,0.4c-0.1,0.1-0.2,0.2-0.2,0.3c-0.5,0.8-1.3,0.7-1.6,1.3
		v0.1c-0.1,0.1-0.1,0.3,0,0.4c0,0,0,0,0,0.1s0,0.2,0,0.3l0,0c0,0.1,0,0.1,0.1,0.2c0,0,0,0.1,0,0.2c0,0.3-0.2,0.3-0.4,0.8
		c-0.1,0.2,0,0.1-0.4,1.1c0,0.1-0.1,0.2-0.1,0.4c0,0.1,0,0.1,0,0.2c0,0,0,0.2,0.1,0.2c0,0,0,0,0.1,0l0.1,0.1
		c0.2,0.3,0.4,0.4,0.4,0.5c0,0.2-0.2,0.1-0.2,0.4c-0.1,0.2,0,0.5,0,0.5c0.1,0.1,0.2,0.2,0.2,0.4c0.1,0.2,0.1,0.3,0.2,0.4
		c0.1,0.2,0.4,0.2,0.5,0.2s0.3,0,0.5,0c0.3,0,0.4-0.1,0.4,0c0.1,0.1,0.1,0.3,0.2,0.3c0.1,0,0.2-0.1,0.5-0.3l0,0c0.1,0,0.1,0,0.1,0
		s0.1-0.1,0.3-0.2c0.1,0,0.2-0.1,0.4-0.3c0.1-0.1,0.2-0.2,0.3-0.3c0.2-0.2,0.3-0.3,0.3-0.4l0,0c0.1-0.1,0.2-0.3,0.2-0.4l0,0
		c0,0,0.1-0.1,0.2-0.3c0,0,0-0.1,0.1-0.1c0,0,0.1,0,0.1-0.1c0.2-0.1,0.2,0,0.3-0.1l0,0l0,0l0,0c0.1,0,0.2-0.1,0.2-0.2l0.1-0.1l0,0
		l0,0c0.1-0.2,0.2-0.5,0.4-0.9c0,0,0,0,0-0.1l0,0c0.1-0.1,0.3-0.4,0.6-0.8l0.1-0.1c0.1-0.1,0.1-0.2,0.2-0.3l0,0
		c0.1-0.1,0.2-0.2,0.2-0.3l0,0l0,0c0.1-0.1,0.1-0.1,0.1-0.1c0.1-0.1,0.1-0.1,0.2-0.2c0.3-0.3,0.4-0.2,0.7-0.5
		c0.1-0.1,0.3-0.4,0.6-0.8c0.2-0.3,0.2-0.3,0.3-0.5c0.1-0.1,0.2-0.2,0.3-0.3c0.1,0.1,0.3,0.1,0.4,0.1c0.3,0.1,0.5,0.2,0.7,0.2
		c0.6,0.2,0.9,0.1,1,0.1c0.3,0,0.4,0,0.5-0.1c0,0,0,0,0.1,0c0,0.2,0.1,0.2,0.1,0.3l0,0c0.2,0.2,0.4,0.3,0.5,0.3
		c0.3,0.1,0.5,0.1,0.7,0.1c0.1,0,0.3,0,0.9,0c0.8-0.1,0.7-0.1,0.9-0.1c0.6,0,0.8,0,0.9-0.1l0,0c0.1,0.1,0.2,0.1,0.3,0.2
		c0.2,0.1,0.5,0.3,0.8,0.3c0.1,0,0.3,0,0.8-0.1c0.6-0.2,0.6-0.3,1.1-0.4c0.7-0.2,1-0.2,1.1-0.4c0.2,0.1,0.3,0.2,0.4,0.2
		c0.2,0.1,0.4,0.1,0.8,0c0.2,0,0.5-0.1,0.9-0.3c0.6-0.2,0.5-0.3,1.2-0.6c0.5-0.2,0.6-0.2,0.7-0.4c0.1,0,0.2,0,0.3,0
		c0.3,0,0.6-0.1,0.7-0.1c0.1,0,0.4-0.1,0.6-0.3c0.1-0.1,0.2-0.2,0.5-0.5c0.2-0.3,0.3-0.3,0.5-0.6c0.2-0.2,0.3-0.3,0.4-0.4
		c0.2-0.2,0.3-0.2,0.3-0.3c0-0.1,0-0.1,0-0.2c0.1-0.1,0.2-0.2,0.3-0.2l0,0c0.2-0.2,0.2-0.3,0.6-0.8c0,0,0.2-0.3,0.6-1
		c0.1-0.2,0.1-0.3,0.2-0.4c0-0.1,0-0.2-0.1-0.2c0.1,0,0.2,0,0.3-0.1l0,0c0.2-0.2,0.2-0.4,0.4-1c0.1-0.4,0.2-0.5,0.3-0.8
		c0,0,0,0,0.1,0s0.2-0.1,0.3-0.3c0,0,0,0,0.1,0c0.3,0.1,0.4,0.1,0.4,0.2c0.4,0.2,0.5,0.7,0.5,0.9c0.1,0.3,0,0.3,0.1,0.6
		c0.1,0.3,0.2,0.3,0.3,0.6c0.1,0.2,0.2,0.5,0.3,0.9c0.2,0.5,0.1,0.5,0.3,0.9c0.2,0.7,0.3,0.8,0.3,1.1c0,0.3-0.1,0.4,0,0.6
		c0.1,0.3,0.3,0.4,0.3,0.6s-0.1,0.2-0.2,0.4c-0.1,0.3,0.2,0.4,0.1,0.7c0,0.2-0.1,0.2-0.2,0.4c0,0.2,0,0.3,0,0.4
		c0.1,0.4-0.2,0.6-0.4,1.4c0,0.1-0.1,0.3-0.1,0.7c-0.1,0.7-0.1,1-0.1,1.2c0,0.5,0,0.7,0.2,0.8c0.3,0.2,1-0.5,1.1-0.6
		s0.4-0.4,0.8-1.4c0.4-0.8,0.6-1.5,0.7-1.7c0.1-0.2,0.1-0.4,0.2-0.6v-0.1l0,0l0,0l0,0v-0.1c0,0,0,0,0-0.1l0,0
		c0.1-0.1,0.1-0.2,0.1-0.3c0-0.1,0-0.1,0-0.2c0,0,0,0,0-0.1l0,0c0.1-0.1,0-0.1,0-0.4c0-0.2,0.1-0.3,0.1-0.4l0,0c0-0.1,0-0.1,0.1-0.2
		l0,0c0.1,0,0.1-0.1,0.1-0.2l0,0c0-0.1,0.1-0.1,0.1-0.2c0.2-0.4,0.2-0.9-0.1-2c0-0.1,0-0.2-0.1-0.4c0-0.2,0-0.2-0.1-0.4
		c0-0.1-0.1-0.2-0.1-0.2c0-0.1-0.1-0.2-0.1-0.3c0-0.1,0-0.1-0.1-0.2c-0.1-0.3-0.1-0.5-0.2-0.6c0-0.1-0.1-0.3-0.1-0.4l0,0
		c-0.1-0.3-0.2-0.5-0.3-0.8l0,0c0-0.1,0-0.1-0.1-0.2s-0.1-0.2-0.1-0.2l0,0c0-0.1-0.1-0.1-0.1-0.2c0,0,0-0.1-0.1-0.1l0,0
		c0,0,0-0.1-0.1-0.1c0-0.1-0.1-0.1-0.1-0.2l0,0l0,0c0-0.1-0.1-0.2-0.1-0.2l0,0c0-0.1,0-0.1-0.1-0.2s-0.1-0.2-0.1-0.2l0,0l0,0
		c-0.2-0.4-0.4-0.6-0.6-0.9c-0.4-0.5-0.5-0.6-0.6-0.6c-0.2-0.1-0.4-0.2-0.6-0.2c0,0-0.1,0-0.2,0c0,0,0,0-0.1,0c-0.2,0-0.4,0-1.1,0.1
		c-0.1,0-0.2,0-0.2,0c0-0.1,0-0.2-0.1-0.2c-0.2-0.6-0.5-1.2-0.8-1.6l0,0c0.2-0.2,0.2-0.6,0.7-1c0.4-0.3,0.5-0.2,1.5-0.6
		c0.7-0.3,1.3-0.6,1.6-0.8c0.4-0.3,0.7-0.4,0.9-0.6c0.3-0.3,0.3-0.4,0.6-0.6s0.4-0.2,0.6-0.4c0.1-0.2,0-0.3,0.2-0.5
		c0.1-0.1,0.2-0.2,0.3-0.2l0,0c0.1,0,0.1,0,0.1,0l0,0l0,0l0,0l0,0c0,0,0-0.1,0-0.3c0-0.1,0-0.2-0.1-0.3l0,0c0-0.1,0-0.1,0-0.2
		c-0.1-0.3-0.1-0.6-0.3-0.8c-0.2-0.2-0.5-0.3-0.9-0.4c0,0-0.2,0-0.3,0l0,0l0,0c0,0-0.1,0-0.3,0c-0.1,0-0.2,0-0.3,0
		c-0.2,0-0.2,0-0.3,0c0,0,0,0-0.1,0.1c-0.2,0-0.4,0.1-0.6,0.2c-0.4,0.1-0.4,0.2-0.9,0.3l0,0l0,0c0,0-0.1,0.1-0.2,0.1l0,0l0,0l0,0
		l0,0l0,0l0,0c-0.1,0-0.1,0-0.2,0c-0.1,0-0.1,0-0.2,0.1c0,0,0,0-0.1,0s-0.1,0-0.2,0.1c-0.1,0-0.1,0-0.2,0c-0.5,0.2-0.6,0.2-0.7,0.2
		c-0.2,0.1-0.3,0.2-0.6,0.4c-0.4,0.3-0.7,0.5-0.8,0.6c-0.3,0.2-0.4,0.3-0.6,0.4c-0.1-0.1-0.2-0.2-0.3-0.2c-0.2-0.1-0.3-0.3-0.6-0.4
		c0,0-0.1,0-0.3-0.1c-0.1,0-0.2-0.1-0.4-0.1s-0.4,0-0.6-0.1c0-0.1-0.1-0.1-0.1-0.2c0,0,0-0.1-0.1-0.3c-0.1-0.3,0-0.4-0.1-0.6
		c0-0.1,0-0.2-0.2-0.6c-0.2-0.5-0.4-0.8-0.5-0.9c-0.2-0.2-0.2-0.2-0.4-0.4c0,0,0,0-0.1-0.1c0,0-0.1-0.1-0.2-0.2
		c-0.1-0.1-0.2-0.2-0.3-0.3l0,0l0,0c0,0,0-0.1-0.2-0.2l-0.1-0.1c-0.1-0.1-0.3-0.4-0.6-0.6c-0.2-0.2-0.4-0.4-0.6-0.6
		c-0.1,0-0.1-0.1-0.1-0.1s0-0.1-0.2-0.2c0,0-0.1,0-0.1-0.1c-0.1,0-0.1-0.1-0.2-0.1c-0.1,0-0.1-0.1-0.2-0.1l0,0l0,0l0,0l0,0l0,0
		c-0.2-0.1-0.4-0.2-0.8-0.3c-0.4-0.2-0.6-0.2-0.9-0.3c-0.1,0-0.2-0.1-1-0.2c-0.7-0.2-0.8-0.2-0.9-0.2
		C781.1,336.7,780.8,336.7,780.5,336.7z M789.2,344.5C789.2,344.6,789.2,344.6,789.2,344.5C789.2,344.6,789.2,344.6,789.2,344.5
		C789.2,344.6,789.2,344.6,789.2,344.5z M816.6,361.7C816.5,361.7,816.5,361.7,816.6,361.7c-0.1,0-0.1,0.1,0,0.3
		c0.1,0.2,0.2,0.3,0.2,0.4c0.1,0.1,0.2,0.1,0.4,0.3c0.3,0.2,0.3,0.2,0.4,0.3c0.2,0.2,0.3,0.2,0.4,0.3c0.1,0.2,0.1,0.3,0.1,0.5l0,0
		c0,0,0,0,0,0.1l0,0l0,0c0.1,0.2,0.2,0.2,0.3,0.4v0.1c0,0,0,0,0,0.1s0,0.1,0,0.1l0,0v0.1c0.1,0.2,0.1,0.2,0.2,0.4v0.1
		c0,0,0,0.1,0,0.2s0,0.2,0,0.2l0,0v0.1v0.1l0,0c0,0,0,0,0.1,0.2c0,0.1,0,0.1,0.1,0.1l0,0c0,0,0,0.1,0.1,0.2c0.1,0.3,0,0.5,0,0.6
		c0,0,0,0-0.1,0c-0.5-0.2-0.5-0.2-0.7-0.2c-0.3-0.1-0.3,0-0.6-0.1s-0.3-0.1-0.6-0.2c-0.2,0-0.3-0.1-0.6-0.1s-0.4,0-0.5,0
		s-0.1,0-0.2,0c-0.1-0.1-0.3,0-0.7-0.1c-0.3,0-0.3-0.1-0.7-0.1c-0.2,0-0.5,0-0.8,0l0,0l0,0c-0.1-0.1-0.4,0-0.7-0.1c0,0,0,0-0.4-0.1
		c-0.2-0.1-0.3-0.1-0.4-0.1c-0.1,0-0.6-0.1-0.7,0c-0.1,0-0.1,0-0.2,0c-0.1,0-0.2,0-0.4,0s-0.2,0-0.4-0.1c-0.2,0-0.3,0-0.5,0
		s-0.2,0-0.4,0.1c0,0-0.2,0-0.3,0.1c-0.1,0-0.3,0-0.6,0c-0.1,0-0.2,0-0.4,0c-0.3,0-0.4,0-0.5,0s-0.6,0.2-0.7,0.3h-0.1
		c-0.1,0-0.3,0-0.5,0.1c-0.2,0-0.4,0.1-0.4,0.1c-0.2,0.1-0.1,0.1-0.3,0.2c-0.1,0.1-0.3,0.1-0.3,0.1c-0.1,0-0.2,0-0.4,0
		c-0.1,0-0.2,0-0.3,0.1c-0.1,0-0.1,0.1-0.1,0.2c-0.1,0-0.1,0.1-0.3,0.1c-0.2,0.1-0.3,0.1-0.5,0.2s-0.3,0.1-0.3,0.2s0,0.2,0,0.3
		c-0.2,0.1-0.4,0.3-0.7,0.5c-0.1,0.1-0.3,0.2-0.3,0.3c-0.1,0-0.3,0-0.5,0s-0.4,0-0.7,0c-0.2,0-0.2,0-0.4,0l0,0c0,0-0.1,0-0.2,0
		c-0.2,0-0.2,0-0.3,0l0,0c-0.1,0-0.2,0-0.4,0c-0.3,0-0.5,0-0.7,0.1c-0.2,0-0.3,0-0.4,0.1c-0.3,0.1-0.3,0.3-0.5,0.3s-0.2,0-0.6-0.1
		c-0.1,0-0.4,0-0.7,0s-0.6,0.1-0.6,0.2c-0.1,0.2,0.1,0.4,0.3,0.5s0.3,0.1,0.5,0.1c0.9,0,0.6,0,1,0c0.8,0,0.8-0.1,1.3-0.1
		c0.2,0,0.5,0,1,0.1c0.4,0,0.7,0.1,1.1,0.1c0.3,0,0.6,0.1,0.9,0.1c0.5,0.1,0.8,0.1,1.2,0.2c0.3,0.1,0.4,0.1,0.6,0.1v0.1
		c-0.3-0.1-0.5-0.1-0.7,0c-0.1,0-0.2,0-0.3,0c-0.3,0-0.4-0.1-0.6,0c-0.1,0-0.2,0.1-0.2,0.1c-0.5,0.3-1,0-1.3,0.3c0,0,0,0-0.1,0.1
		s-0.1,0.1-0.1,0.2l0,0c0,0.1,0,0.1,0,0.2l0,0l0,0v0.1v0.1c-0.1,0.2-0.2,0.1-0.4,0.3c-0.1,0.1,0,0-0.5,0.5c-0.1,0.1-0.1,0.1-0.1,0.2
		c0,0,0,0.1-0.1,0.1c0,0,0,0.1,0,0.2l0,0v0.1c0.1,0.3,0.1,0.3,0.1,0.4s-0.1,0-0.2,0.1c-0.1,0.1-0.1,0.3-0.1,0.3c0,0.1,0,0.1,0.1,0.3
		c0,0.1,0,0.2,0,0.2c0,0.1,0.2,0.2,0.2,0.2c0.1,0.1,0.2,0.1,0.3,0.1c0.2,0.1,0.2,0.1,0.3,0.1c0.1,0.1,0,0.2,0,0.2
		c0.1,0.1,0.2,0,0.4,0h0.1c0,0,0.1,0,0.2,0c0.1,0,0.2,0,0.3-0.1c0.1,0,0.1,0,0.3-0.1s0.2-0.1,0.3-0.1c0.1-0.1,0.2-0.1,0.2-0.1l0,0
		c0,0,0.1,0,0.2-0.1c0,0,0,0,0.1,0h0.1c0.1,0,0.1,0,0.2,0l0,0c0.1,0,0.1,0,0.2,0c0,0,0.1,0,0.1-0.1l0,0l0,0c0.1-0.1,0.3-0.2,0.5-0.4
		l0,0l0,0l0,0c0.1,0,0.3-0.1,0.6-0.3h0.1c0.1,0,0.1-0.1,0.2-0.1l0,0c0.1,0,0.2-0.1,0.2-0.1h0.1l0,0l0,0l0,0c0.1,0,0.1,0,0.1,0
		c0.3-0.1,0.3,0,0.5-0.1c0.1,0,0.3-0.1,0.6-0.3c0.2-0.1,0.2-0.1,0.3-0.2s0.2-0.1,0.2-0.1c0.1,0.1,0.1,0.1,0.2,0.2
		c0.2,0.1,0.3,0.2,0.4,0.3c0.4,0.3,0.5,0.3,0.6,0.4c0.2,0.1,0.3,0.1,0.4,0.1l0,0c0,0.1,0,0.2,0,0.2l0,0c0,0.1,0.2,0.2,0.3,0.3
		c0.1,0.1,0.3,0.2,0.4,0.3c0.1,0,0.2,0.1,0.6,0.2c0.5,0.2,0.4,0.1,0.6,0.2c0.4,0.2,0.5,0.2,0.6,0.2l0,0c0,0.1,0.1,0.1,0.2,0.2
		c0.1,0.1,0.2,0.3,0.4,0.4c0.1,0,0.2,0.1,0.5,0.1c0.4,0.1,0.5,0,0.8,0.1c0.5,0.1,0.7,0.2,0.8,0.1c0.1,0.1,0.2,0.2,0.2,0.2
		c0.1,0.1,0.3,0.2,0.5,0.2c0.1,0,0.3,0.1,0.6,0.1c0.4,0,0.4,0,0.9,0c0.3,0,0.5,0.1,0.5,0c0.1,0,0.1,0.1,0.2,0.1
		c0.2,0.1,0.4,0.1,0.4,0.1c0.1,0,0.3,0,0.5,0c0.1,0,0.2-0.1,0.4-0.2s0.2-0.1,0.4-0.2s0.2-0.1,0.3-0.1c0.2,0,0.2,0,0.3-0.1v-0.1
		c0.1,0,0.2,0,0.3,0c0.2,0,0.2-0.1,0.6-0.3c0,0,0.2-0.1,0.6-0.4c0.1-0.1,0.2-0.1,0.2-0.2s0-0.1,0-0.2c0.1,0,0.1,0,0.2,0
		c0.2,0,0.2-0.2,0.5-0.4c0.2-0.2,0.3-0.2,0.4-0.3l0,0l0,0c0.1,0,0.2,0,0.3-0.1l0,0c0.2,0.2,0.2,0.2,0.2,0.2c0.2,0.2,0.1,0.5,0.1,0.6
		c0,0.2,0,0.2-0.1,0.3c0,0.2,0,0.2,0,0.4c0,0.2,0,0.3,0,0.6c0,0.3,0,0.3-0.1,0.6c0,0.4,0,0.5-0.1,0.7s-0.1,0.2-0.2,0.3
		c0,0.2,0.1,0.3,0,0.4s-0.1,0-0.2,0.1c-0.1,0.1,0,0.3-0.1,0.4s-0.1,0.1-0.2,0.1c-0.1,0.1-0.1,0.2-0.1,0.3c0,0.3-0.3,0.3-0.6,0.7
		c-0.1,0.1-0.1,0.2-0.3,0.4c-0.2,0.4-0.3,0.5-0.3,0.6c-0.1,0.3-0.1,0.4-0.1,0.5c0.2,0.2,0.8,0,0.8,0c0.1,0,0.3-0.1,0.8-0.5
		c0.4-0.3,0.7-0.6,0.9-0.8c0.1-0.1,0.2-0.2,0.3-0.3l0,0l0,0l0.1-0.1l0,0c0.1-0.1,0.1-0.1,0.1-0.1l0.1-0.1l0,0l0,0l0,0l0,0
		c0.1,0,0-0.1,0.1-0.2s0.1-0.1,0.1-0.2l0,0l0.1-0.1l0,0c0,0,0.1,0,0.1-0.1l0,0c0,0,0.1,0,0.1-0.1c0.2-0.1,0.3-0.4,0.4-1.1
		c0,0,0-0.1,0-0.2s0-0.1,0-0.3c0-0.1,0-0.1,0-0.2s0-0.1,0-0.2v-0.1c0-0.2,0-0.3,0-0.4s0-0.2,0-0.3l0,0l0,0l0,0c0-0.2,0-0.3,0-0.5
		l0,0c0,0,0-0.1,0-0.2s0-0.1,0-0.1l0,0l0,0v-0.1v-0.1l0,0c0,0,0,0,0-0.1v-0.1l0,0l0,0l0,0l0,0c0-0.1,0-0.1,0-0.2l0,0c0,0,0,0,0-0.2
		c0-0.1,0-0.1,0-0.1l0,0c0-0.3-0.1-0.4-0.2-0.7c-0.1-0.4-0.2-0.5-0.2-0.5c-0.1-0.1-0.2-0.2-0.3-0.3c0,0-0.1,0-0.1-0.1l0,0l0,0
		c-0.1-0.1-0.2-0.1-0.7-0.3c-0.1,0-0.1,0-0.2,0c0-0.1,0-0.1,0-0.1c0-0.4,0-0.8-0.1-1.1l0,0c0.1-0.1,0.3-0.3,0.7-0.3
		c0.3-0.1,0.4,0,1.1,0.1c0.5,0,0.9,0,1.2,0s0.5,0,0.7-0.1s0.3-0.2,0.5-0.2s0.3,0,0.4-0.1c0.1-0.1,0.1-0.2,0.2-0.2
		c0.1,0,0.2-0.1,0.2-0.1l0,0h0.1l0,0l0,0l0,0c0,0,0,0,0.1-0.2c0-0.1,0-0.1,0-0.2l0,0v-0.1c0-0.2,0.1-0.3,0-0.5s-0.3-0.3-0.5-0.5
		c0,0-0.1-0.1-0.2-0.1l0,0c0,0,0,0-0.2-0.1c0,0-0.1-0.1-0.2-0.1c-0.1-0.1-0.1-0.1-0.2-0.1c0,0,0,0-0.1,0s-0.3-0.1-0.4-0.1
		c-0.3,0-0.3,0-0.6-0.1l0,0l0,0h-0.1h-0.1l0,0l0,0h-0.1c-0.1,0-0.1,0-0.1,0s0,0-0.1,0s-0.1,0-0.1,0c-0.1,0-0.1,0-0.1,0
		c-0.3,0-0.4,0-0.5,0s-0.2,0-0.5,0s-0.5,0.1-0.7,0.1s-0.4,0.1-0.5,0.1c0-0.1-0.1-0.1-0.1-0.2c-0.1-0.1-0.1-0.2-0.3-0.4l-0.1-0.1l0,0
		c-0.1-0.1-0.1-0.1-0.2-0.2c-0.1-0.1-0.2-0.1-0.4-0.2c0,0,0-0.1,0-0.2c0,0,0-0.1,0-0.2c0-0.2,0.1-0.2,0.1-0.3c0-0.1,0-0.1,0-0.4
		s0-0.5-0.1-0.6c0-0.2-0.1-0.2-0.2-0.3l0,0l0,0c0,0,0-0.1-0.1-0.1c0-0.1-0.1-0.2-0.1-0.3l0,0l0,0c0,0,0,0-0.1-0.2v-0.1
		c0-0.1-0.1-0.3-0.2-0.5c-0.1-0.2-0.1-0.3-0.2-0.5c0,0,0-0.1-0.1-0.1l0,0c0,0,0,0-0.1-0.1c0,0,0,0,0-0.1l-0.1-0.1l-0.1-0.1l0,0l0,0
		l0,0l0,0c-0.1-0.1-0.2-0.2-0.4-0.4c-0.2-0.2-0.3-0.3-0.5-0.4c-0.1,0-0.1-0.1-0.6-0.4c-0.4-0.3-0.4-0.3-0.5-0.3
		c-0.2-0.2-0.5-0.2-0.6-0.3c-0.3-0.1-0.7-0.3-1.1-0.3C816.7,361.7,816.6,361.7,816.6,361.7z M821.4,368.9L821.4,368.9L821.4,368.9
		L821.4,368.9z"/>
	<path id="ground" inkscape:label="ground" sodipodi:nodetypes="ccccccccc" class="st6" d="M0.7,513.1h721.1l25.3-13.4
		c15.2-5.1,30.5-10.2,45.7-15.4l49.2-21.2v50v82.1H0.7V513.1z"/>
	<path id="fish" inkscape:label="fish" class="st7" d="M731.3,413.7c-0.1,0-0.4,1-0.6,1.6c-0.3-0.1-0.5-0.2-0.8-0.2
		c-2.8-0.8-5.9,0.8-5.7,1.3c0,0.2,0.4,1.9,6.3,2.8c0.4,0.3,1.1,0.9,1.3,0.9c0.1,0-0.3-0.5-0.6-0.8c0.2,0,0.4,0.1,0.6,0.1
		c0.3-0.1,0.6-0.1,0.9-0.2c0.5,0.4,1.5,1.2,1.6,1.2c0.1-0.1,0-0.2,0.1-0.2c0.2-0.6,0.5-0.9,0.8-1.2c0.8,0,1.4,0.1,2,0.2
		c1.1,0.7,2.9,1.9,3,1.8s-1.9-1.8-1.9-2.2c-0.1-0.4,0.8-1.2,0.6-1.5c-0.3-0.3-0.9,0.4-2,0.1c-0.7-0.1-2.1-0.8-3.8-1.4
		c-0.4-0.5-1.5-1.7-1.6-2.2C731.3,413.6,731.4,413.7,731.3,413.7z M702.5,417.8c-0.1,0-0.8,0.8-1.1,1.2c-0.2-0.1-0.5-0.2-0.7-0.3
		c-2.6-1.1-6.3-0.3-6.3,0.2c0,0.2-0.2,1.6,5.6,3.4c0.3,0.4,0.9,1,1,1s-0.1-0.5-0.3-0.8c0.2,0.1,0.4,0.1,0.6,0.2c0.4,0,0.7,0,1,0
		c0.4,0.4,1.2,1.3,1.3,1.3c0.2,0,0.1-0.1,0.1-0.2c0.4-0.5,0.8-0.7,1.1-0.8c0.8,0.1,1.5,0.3,2,0.5c0.1,0.1,0.1,0.1,0.2,0.2
		c-0.7,0.2-1.2,0.4-1.2,0.5c0,0.2-0.2,1.6,5.6,3.4c0.3,0.4,0.9,1,1,1s-0.1-0.5-0.3-0.8c0.2,0.1,0.4,0.1,0.6,0.2c0.4,0,0.7,0,1,0
		c0.4,0.4,1.2,1.3,1.3,1.3c0.2,0,0.1-0.1,0.1-0.2c0.4-0.5,0.8-0.7,1.1-0.8c0.8,0.1,1.5,0.3,2,0.5c0.9,0.7,2.4,2.1,2.6,2
		c0.1,0-1.4-1.8-1.3-2.1c0.1-0.3,1.2-0.9,1-1.2c-0.2-0.3-1,0.2-2.1-0.2c-0.7-0.2-2-1-3.5-1.8c-0.3-0.5-1-1.7-1.1-2.1
		c-0.1-0.3,0-0.2-0.1-0.2s-0.8,0.8-1.1,1.2c-0.2-0.1-0.5-0.2-0.7-0.3c-1.3-0.5-2.8-0.6-4-0.5c0-0.1,0-0.1,0-0.2
		c0.1-0.3,1.2-0.9,1-1.2c-0.2-0.3-1,0.2-2.1-0.2c-0.7-0.2-2-1-3.5-1.8c-0.3-0.5-1-1.7-1.1-2.1C702.5,417.7,702.6,417.8,702.5,417.8
		L702.5,417.8z M747.3,420.7c-0.1,0-0.7,0.9-1,1.3c-0.3-0.1-0.5-0.2-0.8-0.2c-2.9-0.9-6.7,0.2-6.6,0.7c0,0.2,0,1.6,6.4,2.9
		c0.4,0.3,1.1,0.9,1.2,0.9c0.1,0-0.2-0.4-0.4-0.8c0.2,0,0.5,0.1,0.7,0.1c0.4,0,0.7-0.1,1.1-0.1c0.4,0.4,1.4,1.2,1.6,1.1
		c0.2-0.1,0.1-0.1,0.1-0.2c0.4-0.5,0.8-0.8,1.1-0.9c0.9,0.1,1.6,0.2,2.1,0.3c1,0.7,2.8,1.8,3,1.8c0.1-0.1-1.7-1.6-1.7-2
		c0-0.3,1.2-1,0.9-1.2c-0.2-0.2-1.1,0.2-2.3,0c-0.7-0.2-2.2-0.8-3.9-1.5c-0.4-0.4-1.3-1.6-1.4-2
		C747.3,420.7,747.4,420.7,747.3,420.7L747.3,420.7z M724.7,422.6c-0.1,0-0.6,0.6-0.8,1c-0.2-0.1-0.4-0.2-0.6-0.2
		c-2.1-0.9-4.9-0.2-4.9,0.1c0,0.1-0.1,1.3,4.4,2.7c0.2,0.3,0.7,0.8,0.8,0.8s-0.1-0.4-0.3-0.6c0.2,0,0.3,0.1,0.5,0.1
		c0.3,0,0.5,0,0.8,0c0.3,0.3,0.9,1,1.1,1c0.1,0,0.1-0.1,0.1-0.1c0.3-0.4,0.6-0.6,0.9-0.7c0.6,0.1,1.1,0.2,1.5,0.4
		c0.7,0.6,1.9,1.6,2,1.6s-1.1-1.4-1.1-1.7c0-0.3,0.9-0.7,0.8-0.9c-0.1-0.2-0.8,0.1-1.7-0.2c-0.5-0.2-1.5-0.8-2.7-1.4
		c-0.2-0.4-0.8-1.3-0.8-1.6C724.7,422.5,724.8,422.6,724.7,422.6L724.7,422.6z M692.2,425c-0.1,0-0.7,0.9-1,1.3
		c-0.2-0.1-0.4-0.2-0.6-0.3c-2.4-1.2-5.6-0.3-5.6,0.2c0,0.2-0.2,1.7,5.1,3.6c0.3,0.4,0.8,1,0.9,1.1c0.1,0-0.1-0.5-0.3-0.8
		c0.2,0.1,0.4,0.1,0.6,0.2c0.3,0,0.6,0,0.9,0c0.3,0.4,1.1,1.4,1.2,1.3c0.2-0.1,0.1-0.1,0.1-0.2c0.3-0.5,0.7-0.8,1-0.9
		c0.7,0.1,1.3,0.3,1.8,0.5c0.4,0.4,0.9,0.9,1.4,1.3c-0.1,0.1-0.2,0.3-0.3,0.4c-0.2-0.1-0.4-0.2-0.6-0.3c-2.4-1.2-5.7-0.3-5.7,0.2
		c0,0.2-0.2,1.7,5.1,3.6c0.3,0.4,0.8,1,0.9,1.1c0.1,0-0.1-0.5-0.3-0.8c0.2,0.1,0.4,0.1,0.6,0.2c0.3,0,0.6,0,0.9,0
		c0.3,0.4,1.1,1.4,1.2,1.3c0.2,0,0.1-0.1,0.1-0.2c0.3-0.5,0.7-0.8,1-0.9c0.7,0.1,1.3,0.3,1.8,0.5c0.8,0.8,2.2,2.2,2.3,2.1
		s-1.3-1.9-1.2-2.2c0.1-0.4,1.1-1,0.9-1.2c-0.2-0.3-0.9,0.2-1.9-0.2c-0.6-0.2-1.8-1.1-3.1-1.9c-0.3-0.5-0.9-1.8-0.9-2.2
		c-0.1-0.3,0-0.2-0.1-0.3c0,0-0.2,0.2-0.4,0.5c-0.3-0.5-0.6-0.9-0.5-1.1c0.1-0.4,1.1-1,0.9-1.2c-0.2-0.3-0.9,0.2-1.9-0.2
		c-0.6-0.2-1.8-1.1-3.1-1.9c-0.3-0.5-0.9-1.8-0.9-2.2C692.2,425,692.3,425.1,692.2,425z M749,427.6c-0.1,0-0.6,0.7-0.8,1
		c-0.2-0.1-0.4-0.2-0.5-0.3c-2-0.9-4.9-0.3-4.9,0.1c0,0.2-0.1,1.4,4.4,2.8c0.2,0.3,0.7,0.8,0.8,0.8s-0.1-0.4-0.3-0.7
		c0.2,0,0.3,0.1,0.5,0.1c0.3,0,0.5,0,0.8,0c0.3,0.3,0.9,1.1,1,1c0.1,0,0.1-0.1,0.1-0.1c0.3-0.4,0.6-0.6,0.9-0.7
		c0.6,0.1,1.1,0.3,1.5,0.4c0.7,0.6,1.9,1.7,2,1.7s-1.1-1.5-1-1.8c0-0.3,0.9-0.7,0.8-1c-0.1-0.2-0.8,0.1-1.7-0.2
		c-0.5-0.2-1.5-0.8-2.7-1.5c-0.2-0.4-0.8-1.4-0.8-1.7C749,427.6,749.1,427.7,749,427.6L749,427.6z M723.5,430.6
		c-0.1,0-0.6,0.8-0.8,1.2c-0.2-0.1-0.4-0.2-0.6-0.3c-2-1-4.9-0.3-4.9,0.2c0,0.2-0.1,1.6,4.4,3.3c0.2,0.3,0.7,0.9,0.8,1
		c0.1,0-0.1-0.4-0.3-0.8c0.2,0.1,0.3,0.1,0.5,0.2c0.3,0,0.5,0,0.8,0c0.3,0.4,0.9,1.2,1,1.2s0.1-0.1,0.1-0.2c0.3-0.4,0.6-0.7,0.9-0.8
		l0,0c0.6,0.1,1.1,0.3,1.5,0.5c0.7,0.7,1.9,2,2,1.9c0.1,0-1.1-1.7-1-2c0-0.3,0.9-0.9,0.8-1.1c-0.1-0.2-0.8,0.1-1.7-0.2
		c-0.5-0.2-1.5-1-2.7-1.8c-0.2-0.5-0.8-1.6-0.8-2C723.5,430.6,723.6,430.6,723.5,430.6L723.5,430.6z M713.5,430.9
		c-0.1,0-0.7,0.8-1,1.2c-0.2-0.1-0.4-0.2-0.6-0.3c-2.4-1.1-5.7-0.3-5.7,0.2c0,0.2-0.2,1.6,5.1,3.4c0.3,0.4,0.8,1,0.9,1
		c0.1,0-0.1-0.5-0.3-0.8c0.2,0.1,0.4,0.1,0.6,0.2c0.3,0,0.6,0,0.9,0c0.3,0.4,1.1,1.3,1.2,1.3c0.2,0,0.1-0.1,0.1-0.2
		c0.3-0.5,0.7-0.7,1-0.8c0.7,0.1,1.3,0.3,1.8,0.5c0.8,0.8,2.2,2.1,2.3,2s-1.3-1.8-1.2-2.1c0.1-0.3,1.1-0.9,0.9-1.2
		c-0.2-0.3-0.9,0.2-1.9-0.2c-0.6-0.2-1.8-1-3.1-1.8c-0.3-0.5-0.9-1.7-0.9-2.1C713.5,430.9,713.6,431,713.5,430.9
		C713.6,430.9,713.5,430.9,713.5,430.9z M736,431.1c-0.1,0-0.6,0.6-0.8,0.9c-0.2-0.1-0.3-0.2-0.5-0.2c-1.9-0.8-4.7-0.2-4.7,0.1
		c0,0.1-0.1,1.2,4.2,2.5c0.2,0.3,0.7,0.7,0.8,0.7s-0.1-0.3-0.2-0.6c0.2,0,0.3,0.1,0.5,0.1c0.3,0,0.5,0,0.7,0c0.3,0.3,0.9,0.9,1,0.9
		s0.1-0.1,0.1-0.1c0.3-0.3,0.6-0.5,0.8-0.6c0.6,0.1,1.1,0.2,1.5,0.4c0.7,0.5,1.8,1.5,1.9,1.4c0.1,0-1-1.3-1-1.5s0.9-0.6,0.7-0.8
		c-0.1-0.2-0.8,0.1-1.6-0.1c-0.5-0.2-1.5-0.7-2.6-1.3c-0.2-0.3-0.8-1.2-0.8-1.5C736,431.1,736.1,431.1,736,431.1z M750.8,435.3
		c-0.1,0-0.8,0.9-1.1,1.3c-0.2-0.1-0.4-0.2-0.7-0.3c-2.5-0.9-6.1,0.2-6.2,0.7c0,0.2-0.3,1.7,5.2,3.1c0.3,0.3,0.8,0.9,0.9,1
		c0.1,0-0.1-0.5-0.3-0.8c0.2,0,0.4,0.1,0.6,0.1c0.3,0,0.7,0,1-0.1c0.3,0.4,1.1,1.2,1.2,1.2c0.2-0.1,0.1-0.1,0.1-0.2
		c0.4-0.5,0.8-0.8,1.2-1c0.8,0.1,1.4,0.2,1.9,0.4c0.8,0.7,2.2,1.9,2.4,1.9c0.1-0.1-1.2-1.7-1.2-2.1c0.1-0.4,1.2-1,1.1-1.3
		c-0.2-0.2-1,0.2-2.1,0c-0.6-0.2-1.8-0.9-3.2-1.6c-0.3-0.5-0.9-1.7-0.9-2.1C750.8,435.3,750.9,435.3,750.8,435.3L750.8,435.3z
		 M735.2,435.7c-0.8,0-1.3,0.2-1.3,0.4c-0.1,0.2-0.4,1.7,3.5,4.3c0.2,0.4,0.5,1.1,0.6,1.2c0.1,0,0-0.5-0.1-0.9
		c0.1,0.1,0.3,0.2,0.4,0.3c0.3,0,0.5,0.1,0.7,0.2c0.2,0.5,0.7,1.5,0.8,1.5s0.1-0.1,0.1-0.2c0.4-0.4,0.7-0.6,1-0.7
		c0.6,0.2,1,0.5,1.3,0.8c0.5,0.9,1.4,2.4,1.6,2.4c0.1,0-0.7-2-0.6-2.4c0.1-0.4,1-0.8,0.9-1.1c-0.1-0.3-0.8,0-1.5-0.5
		c-0.5-0.3-1.3-1.3-2.2-2.4c-0.1-0.5-0.5-1.9-0.4-2.3c0-0.3,0-0.2,0-0.3c-0.1,0-0.7,0.7-1,1.1c-0.2-0.1-0.3-0.3-0.5-0.4
		C737.5,436,736.2,435.7,735.2,435.7z M722.5,438.8c-0.6,0-1.1,0.1-1.1,0.3c0,0.1-0.3,1.2,2.7,3.2c0.1,0.3,0.4,0.8,0.4,0.9
		c0.1,0,0-0.4-0.1-0.6c0.1,0.1,0.2,0.1,0.3,0.2c0.2,0,0.4,0.1,0.6,0.1c0.1,0.3,0.5,1.1,0.6,1.1s0.1-0.1,0.1-0.1
		c0.3-0.3,0.5-0.5,0.7-0.5l0,0c0.4,0.2,0.8,0.4,1,0.6c0.4,0.7,1.1,1.8,1.2,1.8c0.1,0-0.5-1.5-0.5-1.8c0.1-0.3,0.8-0.6,0.7-0.8
		c-0.1-0.2-0.6,0-1.1-0.4c-0.3-0.2-0.9-1-1.7-1.8c-0.1-0.4-0.4-1.4-0.3-1.7c0-0.2,0-0.2,0-0.2s-0.5,0.5-0.7,0.8
		c-0.1-0.1-0.2-0.2-0.3-0.3C724.2,439,723.3,438.8,722.5,438.8z M713,440.9c-0.1,0-0.5,0.6-0.8,1c-0.2-0.1-0.3-0.2-0.5-0.2
		c-1.9-0.9-4.4-0.2-4.4,0.1c0,0.1-0.1,1.3,4,2.7c0.2,0.3,0.6,0.8,0.7,0.8c0.1,0-0.1-0.4-0.2-0.6c0.1,0,0.3,0.1,0.4,0.1
		c0.3,0,0.5,0,0.7,0c0.3,0.3,0.8,1,0.9,1c0.1,0,0.1-0.1,0.1-0.1c0.3-0.4,0.6-0.6,0.8-0.7l0,0c0.6,0.1,1,0.2,1.4,0.4
		c0.6,0.6,1.7,1.6,1.8,1.6s-1-1.4-0.9-1.7c0-0.3,0.8-0.7,0.7-0.9c-0.1-0.2-0.7,0.1-1.5-0.2c-0.5-0.2-1.4-0.8-2.4-1.4
		c-0.2-0.4-0.7-1.3-0.7-1.6C713,440.9,713.1,441,713,440.9L713,440.9z"/>
	
		<path id="cable" inkscape:label="cable" inkscape:original-d="m 297,163.39832 c -12.64136,5.08764 -25.28314,10.17508 -37.92684,15.26292 -1.48587,0.78836 -2.97162,1.57625 -4.45799,2.36406 -5.33168,-2.48692 -10.6624,-4.97354 -15.99468,-7.46102 -0.51223,-8.80336 -1.02457,-17.60423 -1.53736,-26.40863 -3.7874,-2.79813 -7.57363,-5.59546 -11.36137,-8.39398 -2.49484,2.68467 -4.98857,5.3676 -7.4846,8.05245 -3.27805,-0.0353 -6.55394,-0.0709 -9.83139,-0.10678 -1.39721,-3.9313 -2.79451,-7.86236 -4.19237,-11.79451 0.37826,-2.31807 0.75614,-4.63577 1.13386,-6.95431 -4.56002,0.0253 -9.11935,0.0503 -13.67982,0.0751 0.0901,2.11875 0.18001,4.23711 0.26961,6.35509 -0.534,3.92827 -1.06829,7.85646 -1.60288,11.7847 -3.68838,0.43809 -7.37626,0.87583 -11.06517,1.31339 -1.80506,-2.27489 -3.61031,-4.54993 -5.41563,-6.82501 -4.05819,2.11203 -8.117,4.22398 -12.17641,6.33584 0.50338,4.58284 1.00637,9.16437 1.5092,13.74655 -1.32448,6.76101 -2.64901,13.52071 -3.97399,20.28107 -7.06201,2.6e-4 -14.12431,2.6e-4 -21.186,0 -7.08316,2.6e-4 -14.16804,2.6e-4 -21.252,0 -4.11531,-0.79937 -8.23086,-1.599 -12.34724,-2.399 -0.86861,-5.65654 -1.73723,-11.31178 -2.60637,-16.96886 -3.479465,-2.39398 -6.958861,-4.78799 -10.438199,-7.18204 -2.223885,2.23259 -4.448569,4.46546 -6.673077,6.69761 -3.169026,0.35352 -6.338759,0.70681 -9.508369,1.0598 -1.890223,-0.88133 -3.780887,-1.76301 -5.671659,-2.64487 -0.06278,-2.5146 -0.125837,-5.0296 -0.189151,-7.54475 -0.488891,-0.8123 -0.978125,-1.62499 -1.467483,-2.43771 -0.509315,0.69421 -1.019109,1.38845 -1.528945,2.08213 0.226098,2.63457 0.451953,5.26913 0.677602,7.90411 -2.059174,0.94937 -4.11816,1.89802 -6.17705,2.84672 -3.33821,-0.56822 -6.67571,-1.13663 -10.0132,-1.70534 -1.932796,-2.21708 -3.865287,-4.43378 -5.798817,-6.65162 -4.120863,2.77495 -8.241103,5.54904 -12.3613,8.32266 -1.167063,6.20657 -2.334501,12.41346 -3.502406,18.62116 -9.685047,2.8e-4 -29.04933381,5e-5 -29.04933381,5e-5" inkscape:path-effect="#path-effect14025-7-9-10-9-45-4-9" sodipodi:nodetypes="cccccccccccccccccccccccccccccccccccc" class="st8" d="
		M841.9,463.2c-35.8,14.4-71.7,28.8-91.7,37.2s-24.2,10.6-33.9,8.2s-24.8-9.5-33.1-25.5s-9.7-40.9-15.8-57.4
		c-6.1-16.4-16.8-24.4-25.7-24.5c-8.9-0.2-16,7.4-24.2,11.2c-8.2,3.8-17.5,3.7-24.1-2s-10.6-16.8-12-25.6
		c-1.4-8.9-0.4-15.4-6.3-18.7c-5.9-3.3-18.9-3.2-25.2-0.1s-6.1,9-6.7,17.6c-0.6,8.6-2.1,19.7-8.1,25.9c-6,6.2-16.4,7.4-24.2,4.8
		s-12.9-9.1-21.2-9.3c-8.3-0.2-19.8,5.8-24.9,15.2c-5,9.5-3.6,22.5-4.8,38.6s-4.9,35.2-16.8,44.8s-31.9,9.6-52,9.6
		c-20,0-40.1,0-56-1.1c-15.9-1.1-27.5-3.4-34.6-12.6s-9.5-25.2-15.7-36.6s-16-18.2-24.1-18.4c-8.1-0.2-14.4,6.1-22,9.8
		c-7.6,3.7-16.6,4.7-23.8,3.9c-7.2-0.7-12.5-3.2-15.3-8.1c-2.8-4.8-2.9-11.9-3.7-16.7c-0.8-4.7-2.2-7-3.6-7.2
		c-1.4-0.2-2.9,1.8-3.3,6.5c-0.4,4.7,0.2,12.2-2.4,17.3c-2.6,5.1-8.4,7.8-16.1,8.3c-7.6,0.5-17.1-1.1-24.6-5s-12.9-10.2-21.5-9.4
		s-20.3,8.7-27.8,21.4c-7.4,12.7-10.7,30.2-26.1,39s-42.8,8.8-70.3,8.8"/>
	<path id="cetacean-noise" inkscape:label="cetacean-noise" class="st9" d="M307.8,430.5c0.5,0,0.8,0.1,0.7,0.3
		c-2.2,5.9-2.3,6.1-2.3,10.2s0.7,8.2,1.9,10.3c0.7,1.4,0.6,1.7-0.6,1.7c-0.9,0-1.3-0.4-2-1.8c-2.5-5-2.8-12.5-0.8-17.7
		c1-2.6,1.2-2.8,2.6-3C307.5,430.5,307.7,430.5,307.8,430.5L307.8,430.5z M330.6,431.6c0.6,0,1.2,0.1,1.9,0.3
		c1.5,0.5,3.1,1.6,4.1,3.1c0.4,0.6,1.3,1.4,1.9,1.8c2,1.2,2.9,2.7,2.9,5s-0.9,3.8-3,5.1c-0.7,0.4-1.6,1.2-2,1.8
		c-0.4,0.5-1.2,1.4-1.9,1.9c-5.1,3.9-11.6-1.1-11.6-9C322.7,435.8,326.3,431.5,330.6,431.6L330.6,431.6z M330.7,432.3
		c-0.5,0-0.9,0.1-1.6,0.3c-6.9,1.9-8.2,13.5-1.9,17.4c0.7,0.5,1.9,1,2.5,1.1c2.3,0.4,5-1.1,6.3-3.4c0.3-0.5,0.5-1,0.5-1
		c0-0.1,0.2-0.8,0.5-1.5c0.7-1.7,0.7-5,0-6.6c-0.3-0.7-0.5-1.4-0.5-1.5c-0.2-1.3-2.4-3.6-4.2-4.3
		C331.7,432.5,331.2,432.4,330.7,432.3L330.7,432.3z M313.7,433c1.3,0,1.4,0.2,0.6,1.3c-1.2,1.7-2,4.9-2,8c0,3.2,0.1,3.4,2.5,8
		c0.1,0.2-0.5,0.3-1.4,0.2c-1.4-0.1-1.6-0.3-2.7-2.3c-2.2-4-1.8-9.9,0.8-13.7C312.3,433.3,312.8,433,313.7,433L313.7,433z
		 M326.3,435c0.2-0.1,0.4,2.9,0.4,6.8s-0.2,6.9-0.4,6.8c-0.2-0.1-0.7-1-1.3-1.9c-0.8-1.5-0.9-2.3-0.9-4.9s0.2-3.4,0.9-4.9
		C325.6,435.9,326.1,435,326.3,435z M320.8,435.2c0.2,0,0.4,0.1,0.3,0.1c-2.4,3.4-2.4,3.6-2.4,6s0.8,4.8,2,6.1c0.8,0.8,0.7,1-0.6,1
		c-0.9,0-1.4-0.2-2.1-1.1c-2.6-2.9-3-7.3-0.8-10.4c1.1-1.6,1.3-1.7,2.7-1.7C320.2,435.2,320.5,435.2,320.8,435.2L320.8,435.2z
		 M331.6,436.8c0.3,0,0.8,0.3,1.4,0.7c2,1.6,2.7,4.1,1.8,5.8c-0.9,1.8-2.4,3.3-3.5,3.3c-0.4,0-0.7-2-0.7-4.9
		C330.7,438.3,330.9,436.9,331.6,436.8z M337.8,436.9c-0.1,0.1,0,0.6,0.3,1.2c0.4,1.1,0.3,6.3-0.3,7.9l-0.3,0.8l0.9-0.6
		c3-1.9,3.1-6.6,0.3-8.8C338.2,437.1,337.8,436.8,337.8,436.9L337.8,436.9z"/>
	<path id="turbine-noise" inkscape:label="turbine-noise" class="st9" d="M277.9,370.9c-0.5,0-0.8,0.1-0.7,0.3
		c2.2,5.9,2.3,6.1,2.3,10.2s-0.7,8.2-1.9,10.3c-0.7,1.4-0.6,1.7,0.6,1.7c0.9,0,1.3-0.4,2-1.8c2.5-5,2.8-12.5,0.8-17.7
		c-1-2.6-1.2-2.8-2.6-3C278.2,370.9,278,370.9,277.9,370.9L277.9,370.9z M255.1,371.9c-0.6,0-1.2,0.1-1.9,0.3
		c-1.5,0.5-3.1,1.6-4.1,3.1c-0.4,0.6-1.3,1.4-1.9,1.8c-2,1.2-2.9,2.7-2.9,5s0.9,3.8,3,5.1c0.7,0.4,1.6,1.2,2,1.8
		c0.4,0.5,1.2,1.4,1.9,1.9c5.1,3.9,11.6-1.1,11.6-9C263,376.2,259.4,371.9,255.1,371.9L255.1,371.9z M254.9,372.7
		c0.5,0,0.9,0.1,1.6,0.3c6.9,1.9,8.2,13.5,1.9,17.4c-0.7,0.5-1.9,1-2.5,1.1c-2.3,0.4-5-1.1-6.3-3.4c-0.3-0.5-0.5-1-0.5-1
		c0-0.1-0.2-0.8-0.5-1.5c-0.7-1.7-0.7-5,0-6.6c0.3-0.7,0.5-1.4,0.5-1.5c0.2-1.3,2.4-3.6,4.2-4.3C254,372.9,254.5,372.7,254.9,372.7
		L254.9,372.7z M271.9,373.4c-1.3,0-1.4,0.2-0.6,1.3c1.2,1.7,2,4.9,2,8c0,3.2-0.1,3.4-2.5,8c-0.1,0.2,0.5,0.3,1.4,0.2
		c1.4-0.1,1.6-0.3,2.7-2.3c2.2-4,1.8-9.9-0.8-13.7C273.3,373.7,272.9,373.4,271.9,373.4L271.9,373.4z M259.4,375.3
		c-0.2-0.1-0.4,2.9-0.4,6.8s0.2,6.9,0.4,6.8c0.2-0.1,0.7-1,1.3-1.9c0.8-1.5,0.9-2.3,0.9-4.9s-0.2-3.4-0.9-4.9
		C260.1,376.3,259.5,375.4,259.4,375.3z M264.9,375.6c-0.2,0-0.4,0.1-0.3,0.1c2.4,3.4,2.4,3.6,2.4,6s-0.8,4.8-2,6.1
		c-0.8,0.8-0.7,1,0.6,1c0.9,0,1.4-0.2,2.1-1.1c2.6-2.9,3-7.3,0.8-10.4c-1.1-1.6-1.3-1.7-2.7-1.7
		C265.5,375.5,265.2,375.5,264.9,375.6L264.9,375.6z M254.1,377.2c-0.3,0-0.8,0.3-1.4,0.7c-2,1.6-2.7,4.1-1.8,5.8
		c0.9,1.8,2.4,3.3,3.5,3.3c0.4,0,0.7-2,0.7-4.9C255,378.7,254.8,377.3,254.1,377.2z M247.9,377.3c0.1,0.1,0,0.6-0.3,1.2
		c-0.4,1.1-0.3,6.3,0.3,7.9l0.3,0.8l-0.9-0.6c-3-1.9-3.1-6.6-0.3-8.8C247.4,377.5,247.9,377.2,247.9,377.3L247.9,377.3z"/>
</g>
</svg>
